M48
METRIC,LZ,000.000
;FILE_FORMAT=3:3
;TYPE=PLATED
;Layer: PTH_Through_Via
;EasyEDA v6.5.22, 2023-01-29 18:53:10
;10
;Gerber Generator version 0.2
;Holesize 1 = 1.000 mm
T01C1.000
%
G05
G90
T01
X034216Y042585
X073237Y041852
X073237Y019789
X024233Y047941
X007671Y047930
X003651Y038804
X049901Y053894
X077411Y009326
X075674Y051611
X047344Y059592
X052617Y021897
X082263Y054727
X047595Y030415
X040607Y035895
X034216Y122585
X073237Y121852
X073237Y099789
X024233Y127941
X007671Y127930
X003651Y118804
X049901Y133894
X077411Y089326
X075674Y131611
X047344Y139592
X052617Y101897
X082263Y134727
X047595Y110415
X040607Y115895
M30
