M48
METRIC,LZ,000.000
;FILE_FORMAT=3:3
;TYPE=PLATED
;Layer: PTH_Through
;EasyEDA v6.5.22, 2023-01-29 18:53:10
;10
;Gerber Generator version 0.2
;Holesize 1 = 0.712 mm
T01C0.712
;Holesize 2 = 0.800 mm
T02C0.800
;Holesize 3 = 0.901 mm
T03C0.901
;Holesize 4 = 0.945 mm
T04C0.945
;Holesize 5 = 1.000 mm
T05C1.000
;Holesize 6 = 1.101 mm
T06C1.101
;Holesize 7 = 1.199 mm
T07C1.199
;Holesize 8 = 2.540 mm
T08C2.540
%
G05
G90
T01
X087630Y034280
X090170Y034280
X092710Y034280
X095250Y034280
X087630Y114280
X090170Y114280
X092710Y114280
X095250Y114280
T02
X055880Y035577
X055880Y030697
X055880Y115577
X055880Y110697
T03
X008890Y030280
X011430Y030280
X013970Y030280
X016510Y030280
X019050Y030280
X021590Y030280
X024130Y030280
X026670Y030280
X029210Y030280
X031750Y030280
X034290Y030280
X036830Y030280
X039370Y030280
X041910Y030280
X008890Y038280
X011430Y038280
X013970Y038280
X016510Y038280
X019050Y038280
X021590Y038280
X024130Y038280
X026670Y038280
X029210Y038280
X031750Y038280
X034290Y038280
X036830Y038280
X039370Y038280
X041910Y038280
X044450Y024120
X046990Y024120
X006350Y024120
X008890Y024120
X008890Y110280
X011430Y110280
X013970Y110280
X016510Y110280
X019050Y110280
X021590Y110280
X024130Y110280
X026670Y110280
X029210Y110280
X031750Y110280
X034290Y110280
X036830Y110280
X039370Y110280
X041910Y110280
X008890Y118280
X011430Y118280
X013970Y118280
X016510Y118280
X019050Y118280
X021590Y118280
X024130Y118280
X026670Y118280
X029210Y118280
X031750Y118280
X034290Y118280
X036830Y118280
X039370Y118280
X041910Y118280
X044450Y104120
X046990Y104120
X006350Y104120
X008890Y104120
T04
X049280Y075180G85X049280Y075180
X046740Y075180G85X046740Y075180
X044200Y075180G85X044200Y075180
X041660Y075180G85X041660Y075180
X039120Y075180G85X039120Y075180
X036580Y075180G85X036580Y075180
X034040Y075180G85X034040Y075180
X031500Y075180G85X031500Y075180
X028960Y075180G85X028960Y075180
X026420Y075180G85X026420Y075180
X023880Y075180G85X023880Y075180
X021340Y075180G85X021340Y075180
X018800Y075180G85X018800Y075180
X016260Y075180G85X016260Y075180
X013720Y075180G85X013720Y075180
X011180Y075180G85X011180Y075180
X049280Y155180G85X049280Y155180
X046740Y155180G85X046740Y155180
X044200Y155180G85X044200Y155180
X041660Y155180G85X041660Y155180
X039120Y155180G85X039120Y155180
X036580Y155180G85X036580Y155180
X034040Y155180G85X034040Y155180
X031500Y155180G85X031500Y155180
X028960Y155180G85X028960Y155180
X026420Y155180G85X026420Y155180
X023880Y155180G85X023880Y155180
X021340Y155180G85X021340Y155180
X018800Y155180G85X018800Y155180
X016260Y155180G85X016260Y155180
X013720Y155180G85X013720Y155180
X011180Y155180G85X011180Y155180
T05
X091731Y006594G85X091736Y006594
X094231Y006594G85X094237Y006594
X068871Y006594G85X068876Y006594
X071371Y006594G85X071377Y006594
X081571Y006594G85X081576Y006594
X084071Y006594G85X084077Y006594
X058711Y006594G85X058716Y006594
X061211Y006594G85X061217Y006594
X091731Y086594G85X091736Y086594
X094231Y086594G85X094237Y086594
X068871Y086594G85X068876Y086594
X071371Y086594G85X071377Y086594
X081571Y086594G85X081576Y086594
X084071Y086594G85X084077Y086594
X058711Y086594G85X058716Y086594
X061211Y086594G85X061217Y086594
T06
X042469Y018750
X042469Y014249
X048971Y018750
X048971Y014249
X029769Y018750
X029769Y014249
X036271Y018750
X036271Y014249
X017069Y018750
X017069Y014249
X023571Y018750
X023571Y014249
X004369Y018750
X004369Y014249
X010871Y018750
X010871Y014249
X042469Y098750
X042469Y094249
X048971Y098750
X048971Y094249
X029769Y098750
X029769Y094249
X036271Y098750
X036271Y094249
X017069Y098750
X017069Y094249
X023571Y098750
X023571Y094249
X004369Y098750
X004369Y094249
X010871Y098750
X010871Y094249
T07
X077597Y016881
X097917Y016881
X002540Y003800
X022860Y003800
X027940Y003800
X048260Y003800
X096520Y054600
X096520Y074920
X088900Y054600
X088900Y074920
X077597Y024501
X097917Y024501
X077597Y096881
X097917Y096881
X002540Y083800
X022860Y083800
X027940Y083800
X048260Y083800
X096520Y134600
X096520Y154920
X088900Y134600
X088900Y154920
X077597Y104501
X097917Y104501
T08
X005677Y075180G85X005683Y075180
X005677Y044180G85X005683Y044180
X080677Y075180G85X080683Y075180
X080677Y044180G85X080683Y044180
X005677Y155180G85X005683Y155180
X005677Y124180G85X005683Y124180
X080677Y155180G85X080683Y155180
X080677Y124180G85X080683Y124180
M30
