M48
METRIC,LZ,000.000
;FILE_FORMAT=3:3
;TYPE=PLATED
;Layer: PTH_Through
;EasyEDA v6.5.22, 2023-01-28 12:43:13
;10
;Gerber Generator version 0.2
;Holesize 1 = 0.712 mm
T01C0.712
;Holesize 2 = 0.800 mm
T02C0.800
;Holesize 3 = 0.901 mm
T03C0.901
;Holesize 4 = 0.945 mm
T04C0.945
;Holesize 5 = 1.000 mm
T05C1.000
;Holesize 6 = 1.101 mm
T06C1.101
;Holesize 7 = 1.199 mm
T07C1.199
;Holesize 8 = 2.540 mm
T08C2.540
%
G05
G90
T01
X087630Y035491
X090170Y035491
X092710Y035491
X095250Y035491
T02
X055880Y036788
X055880Y031908
T03
X008890Y031491
X011430Y031491
X013970Y031491
X016510Y031491
X019050Y031491
X021590Y031491
X024130Y031491
X026670Y031491
X029210Y031491
X031750Y031491
X034290Y031491
X036830Y031491
X039370Y031491
X041910Y031491
X008890Y039491
X011430Y039491
X013970Y039491
X016510Y039491
X019050Y039491
X021590Y039491
X024130Y039491
X026670Y039491
X029210Y039491
X031750Y039491
X034290Y039491
X036830Y039491
X039370Y039491
X041910Y039491
X044450Y025331
X046990Y025331
X006350Y025331
X008890Y025331
T04
X049280Y076391G85X049280Y076391
X046740Y076391G85X046740Y076391
X044200Y076391G85X044200Y076391
X041660Y076391G85X041660Y076391
X039120Y076391G85X039120Y076391
X036580Y076391G85X036580Y076391
X034040Y076391G85X034040Y076391
X031500Y076391G85X031500Y076391
X028960Y076391G85X028960Y076391
X026420Y076391G85X026420Y076391
X023880Y076391G85X023880Y076391
X021340Y076391G85X021340Y076391
X018800Y076391G85X018800Y076391
X016260Y076391G85X016260Y076391
X013720Y076391G85X013720Y076391
X011180Y076391G85X011180Y076391
T05
X091731Y007805G85X091736Y007805
X094231Y007805G85X094237Y007805
X068871Y007805G85X068876Y007805
X071371Y007805G85X071377Y007805
X081571Y007805G85X081576Y007805
X084071Y007805G85X084077Y007805
X058711Y007805G85X058716Y007805
X061211Y007805G85X061217Y007805
T06
X042469Y019962
X042469Y015461
X048971Y019962
X048971Y015461
X029769Y019962
X029769Y015461
X036271Y019962
X036271Y015461
X017069Y019962
X017069Y015461
X023571Y019962
X023571Y015461
X004369Y019962
X004369Y015461
X010871Y019962
X010871Y015461
T07
X077597Y018092
X097917Y018092
X002540Y005011
X022860Y005011
X027940Y005011
X048260Y005011
X096520Y055811
X096520Y076131
X088900Y055811
X088900Y076131
X077597Y025712
X097917Y025712
T08
X005677Y076391G85X005683Y076391
X005677Y045391G85X005683Y045391
X080677Y076391G85X080683Y076391
X080677Y045391G85X080683Y045391
M30
