M48
METRIC,LZ,000.000
;FILE_FORMAT=3:3
;TYPE=PLATED
;Layer: PTH_Through_Via
;EasyEDA v6.5.22, 2023-01-28 18:44:11
;10
;Gerber Generator version 0.2
;Holesize 1 = 0.501 mm
T01C0.501
%
G05
G90
T01
X031750Y042984
X048048Y042984
X071374Y028778
X096402Y022111
X046996Y030280
X046996Y060876
X034290Y027556
X051481Y027556
X041390Y035577
X081538Y040632
X026909Y068887
X031750Y122984
X048048Y122984
X071374Y108778
X096402Y102111
X046996Y110280
X046996Y140876
X034290Y107556
X051481Y107556
X041390Y115577
X081538Y120632
X026909Y148887
M30
