G04 Layer: TopLayer*
G04 EasyEDA v6.5.22, 2023-01-28 18:44:11*
G04 Gerber Generator version 0.2*
G04 Scale: 100 percent, Rotated: No, Reflected: No *
G04 Dimensions in millimeters *
G04 leading zeros omitted , absolute positions ,4 integer and 5 decimal *
%FSLAX45Y45*%
%MOMM*%

%ADD10C,0.5000*%
%ADD11R,1.2954X1.2954*%
%ADD12C,1.2954*%
%ADD13C,1.3000*%
%ADD14R,1.5000X1.5000*%
%ADD15C,1.5000*%
%ADD16C,1.8796*%
%ADD17C,1.6510*%
%ADD18C,2.0320*%
%ADD19R,2.0320X2.0320*%
%ADD20C,3.0480*%
%ADD21C,1.8000*%
%ADD22R,1.7500X1.7500*%
%ADD23C,1.7500*%
%ADD24C,0.6000*%
%ADD25C,0.0115*%

%LPD*%
D10*
X5798058Y1793494D02*
G01*
X5769863Y1821687D01*
X5727445Y1835912D01*
X5671058Y1835912D01*
X5628893Y1821687D01*
X5600700Y1793494D01*
X5600700Y1765300D01*
X5614670Y1737105D01*
X5628893Y1723136D01*
X5657088Y1708912D01*
X5741670Y1680718D01*
X5769863Y1666747D01*
X5783834Y1652523D01*
X5798058Y1624329D01*
X5798058Y1582165D01*
X5769863Y1553971D01*
X5727445Y1540002D01*
X5671058Y1540002D01*
X5628893Y1553971D01*
X5600700Y1582165D01*
X5891022Y1835912D02*
G01*
X5891022Y1540002D01*
X5891022Y1835912D02*
G01*
X6017768Y1835912D01*
X6060186Y1821687D01*
X6074156Y1807718D01*
X6088125Y1779523D01*
X6088125Y1751329D01*
X6074156Y1723136D01*
X6060186Y1708912D01*
X6017768Y1694942D01*
X5891022Y1694942D02*
G01*
X6017768Y1694942D01*
X6060186Y1680718D01*
X6074156Y1666747D01*
X6088125Y1638554D01*
X6088125Y1596136D01*
X6074156Y1568195D01*
X6060186Y1553971D01*
X6017768Y1540002D01*
X5891022Y1540002D01*
X5601970Y2159000D02*
G01*
X5601970Y2173223D01*
X5616193Y2201418D01*
X5630163Y2215387D01*
X5658358Y2229612D01*
X5714745Y2229612D01*
X5742940Y2215387D01*
X5757163Y2201418D01*
X5771134Y2173223D01*
X5771134Y2145029D01*
X5757163Y2116836D01*
X5728970Y2074418D01*
X5588000Y1933702D01*
X5785358Y1933702D01*
X5962904Y2229612D02*
G01*
X5920486Y2215387D01*
X5892291Y2173223D01*
X5878322Y2102612D01*
X5878322Y2060447D01*
X5892291Y1989836D01*
X5920486Y1947671D01*
X5962904Y1933702D01*
X5991097Y1933702D01*
X6033261Y1947671D01*
X6061456Y1989836D01*
X6075425Y2060447D01*
X6075425Y2102612D01*
X6061456Y2173223D01*
X6033261Y2215387D01*
X5991097Y2229612D01*
X5962904Y2229612D01*
X6182613Y2159000D02*
G01*
X6182613Y2173223D01*
X6196838Y2201418D01*
X6210808Y2215387D01*
X6239002Y2229612D01*
X6295390Y2229612D01*
X6323584Y2215387D01*
X6337554Y2201418D01*
X6351777Y2173223D01*
X6351777Y2145029D01*
X6337554Y2116836D01*
X6309359Y2074418D01*
X6168643Y1933702D01*
X6365747Y1933702D01*
X6486906Y2229612D02*
G01*
X6642100Y2229612D01*
X6557518Y2116836D01*
X6599681Y2116836D01*
X6627875Y2102612D01*
X6642100Y2088642D01*
X6656070Y2046223D01*
X6656070Y2018029D01*
X6642100Y1975865D01*
X6613906Y1947671D01*
X6571488Y1933702D01*
X6529324Y1933702D01*
X6486906Y1947671D01*
X6472936Y1961895D01*
X6458711Y1989836D01*
X5798058Y9793478D02*
G01*
X5769863Y9821671D01*
X5727445Y9835895D01*
X5671058Y9835895D01*
X5628893Y9821671D01*
X5600700Y9793478D01*
X5600700Y9765284D01*
X5614670Y9737089D01*
X5628893Y9723120D01*
X5657088Y9708895D01*
X5741670Y9680702D01*
X5769863Y9666731D01*
X5783834Y9652508D01*
X5798058Y9624313D01*
X5798058Y9582150D01*
X5769863Y9553955D01*
X5727445Y9539986D01*
X5671058Y9539986D01*
X5628893Y9553955D01*
X5600700Y9582150D01*
X5891022Y9835895D02*
G01*
X5891022Y9539986D01*
X5891022Y9835895D02*
G01*
X6017768Y9835895D01*
X6060186Y9821671D01*
X6074156Y9807702D01*
X6088125Y9779508D01*
X6088125Y9751313D01*
X6074156Y9723120D01*
X6060186Y9708895D01*
X6017768Y9694926D01*
X5891022Y9694926D02*
G01*
X6017768Y9694926D01*
X6060186Y9680702D01*
X6074156Y9666731D01*
X6088125Y9638537D01*
X6088125Y9596120D01*
X6074156Y9568179D01*
X6060186Y9553955D01*
X6017768Y9539986D01*
X5891022Y9539986D01*
X5601970Y10158984D02*
G01*
X5601970Y10173208D01*
X5616193Y10201402D01*
X5630163Y10215371D01*
X5658358Y10229595D01*
X5714745Y10229595D01*
X5742940Y10215371D01*
X5757163Y10201402D01*
X5771134Y10173208D01*
X5771134Y10145013D01*
X5757163Y10116820D01*
X5728970Y10074402D01*
X5588000Y9933686D01*
X5785358Y9933686D01*
X5962904Y10229595D02*
G01*
X5920486Y10215371D01*
X5892291Y10173208D01*
X5878322Y10102595D01*
X5878322Y10060431D01*
X5892291Y9989820D01*
X5920486Y9947655D01*
X5962904Y9933686D01*
X5991097Y9933686D01*
X6033261Y9947655D01*
X6061456Y9989820D01*
X6075425Y10060431D01*
X6075425Y10102595D01*
X6061456Y10173208D01*
X6033261Y10215371D01*
X5991097Y10229595D01*
X5962904Y10229595D01*
X6182613Y10158984D02*
G01*
X6182613Y10173208D01*
X6196838Y10201402D01*
X6210808Y10215371D01*
X6239002Y10229595D01*
X6295390Y10229595D01*
X6323584Y10215371D01*
X6337554Y10201402D01*
X6351777Y10173208D01*
X6351777Y10145013D01*
X6337554Y10116820D01*
X6309359Y10074402D01*
X6168643Y9933686D01*
X6365747Y9933686D01*
X6486906Y10229595D02*
G01*
X6642100Y10229595D01*
X6557518Y10116820D01*
X6599681Y10116820D01*
X6627875Y10102595D01*
X6642100Y10088626D01*
X6656070Y10046208D01*
X6656070Y10018013D01*
X6642100Y9975850D01*
X6613906Y9947655D01*
X6571488Y9933686D01*
X6529324Y9933686D01*
X6486906Y9947655D01*
X6472936Y9961879D01*
X6458711Y9989820D01*
X4897114Y9340621D02*
G01*
X7941866Y9340621D01*
X8157392Y8659368D02*
G01*
X7994822Y8659368D01*
X7994822Y8659368D02*
G01*
X7826324Y8490864D01*
X6289898Y8490864D01*
X6121400Y8659368D01*
X2690873Y14888692D02*
G01*
X4298726Y14888692D01*
X4928008Y15517975D01*
X1905000Y11827967D02*
G01*
X1483103Y11406070D01*
X833803Y11406070D01*
X254000Y10826267D01*
X254000Y8379968D01*
X8153760Y12063196D02*
G01*
X8122592Y12094364D01*
X2171390Y12094364D01*
X1905000Y11827967D01*
X254000Y8379968D02*
G01*
X423440Y8210527D01*
X2624559Y8210527D01*
X2794000Y8379968D01*
X3429000Y11827967D02*
G01*
X2897347Y11296317D01*
X883716Y11296317D01*
X635000Y11047600D01*
X635000Y10411968D01*
X3627114Y9875014D02*
G01*
X4374741Y10622633D01*
X8857134Y10622633D01*
X9791700Y9688068D01*
X5588000Y11069675D02*
G01*
X5472684Y11184994D01*
X3332025Y11184994D01*
X3175000Y11027968D01*
X5588000Y11557660D02*
G01*
X4138960Y11557660D01*
X5148150Y10755581D02*
G01*
X3429000Y10755581D01*
X3627114Y9424921D02*
G01*
X3795725Y9256318D01*
X4812817Y9256318D01*
X4897114Y9340621D01*
X4897114Y9424921D02*
G01*
X4897114Y9340621D01*
X7941866Y9340621D02*
G01*
X8407400Y8875087D01*
X8407400Y8659368D01*
X7759700Y10450068D02*
G01*
X7941866Y10267896D01*
X7941866Y9340621D01*
X2357114Y9424921D02*
G01*
X2188331Y9593704D01*
X1255905Y9593704D01*
X1087120Y9424921D01*
X4191000Y11027968D02*
G01*
X4699607Y11027968D01*
X1880008Y15517975D02*
G01*
X3310384Y14087602D01*
X4699607Y14087602D01*
X6887392Y8659368D02*
G01*
X6724822Y8659368D01*
X6724822Y8659368D02*
G01*
X6312992Y9071206D01*
X3726456Y9071206D01*
X3087847Y9709810D01*
X2756631Y9709810D01*
X2085393Y10381056D01*
X1789912Y10381056D01*
X1143000Y11027968D01*
X9640216Y10211056D02*
G01*
X8566099Y11285166D01*
X4225800Y11285166D01*
X3683000Y11827967D01*
X2159000Y11827967D02*
G01*
X2317551Y11986513D01*
X8081726Y11986513D01*
X8110189Y11958038D01*
X8486924Y11958038D01*
X9017000Y11427968D01*
X1397000Y11027968D02*
G01*
X1547192Y10877781D01*
X7137400Y10877781D01*
X8890000Y15491968D02*
G01*
X8630815Y15751152D01*
X4907173Y15751152D01*
X4674008Y15517975D01*
X4826000Y8379968D02*
G01*
X3773215Y8379968D01*
X2357114Y9796068D01*
X2357114Y9875014D01*
X9791700Y10450068D02*
G01*
X9791700Y11366347D01*
X7391623Y13766416D01*
X3377567Y13766416D01*
X1626008Y15517975D01*
X4804790Y12298426D02*
G01*
X3175000Y12298426D01*
X4897114Y1340637D02*
G01*
X7941866Y1340637D01*
X8157392Y659384D02*
G01*
X7994822Y659384D01*
X7994822Y659384D02*
G01*
X7826324Y490880D01*
X6289898Y490880D01*
X6121400Y659384D01*
X2690873Y6888708D02*
G01*
X4298726Y6888708D01*
X4928008Y7517991D01*
X1905000Y3827983D02*
G01*
X1483103Y3406086D01*
X833803Y3406086D01*
X254000Y2826283D01*
X254000Y379984D01*
X8153760Y4063212D02*
G01*
X8122592Y4094380D01*
X2171390Y4094380D01*
X1905000Y3827983D01*
X254000Y379984D02*
G01*
X423440Y210543D01*
X2624559Y210543D01*
X2794000Y379984D01*
X3429000Y3827983D02*
G01*
X2897347Y3296333D01*
X883716Y3296333D01*
X635000Y3047616D01*
X635000Y2411984D01*
X3627114Y1875030D02*
G01*
X4374741Y2622649D01*
X8857134Y2622649D01*
X9791700Y1688084D01*
X5588000Y3069691D02*
G01*
X5472684Y3185010D01*
X3332025Y3185010D01*
X3175000Y3027984D01*
X5588000Y3557676D02*
G01*
X4138960Y3557676D01*
X5148150Y2755597D02*
G01*
X3429000Y2755597D01*
X3627114Y1424937D02*
G01*
X3795725Y1256334D01*
X4812817Y1256334D01*
X4897114Y1340637D01*
X4897114Y1424937D02*
G01*
X4897114Y1340637D01*
X7941866Y1340637D02*
G01*
X8407400Y875103D01*
X8407400Y659384D01*
X7759700Y2450084D02*
G01*
X7941866Y2267912D01*
X7941866Y1340637D01*
X2357114Y1424937D02*
G01*
X2188331Y1593720D01*
X1255905Y1593720D01*
X1087120Y1424937D01*
X4191000Y3027984D02*
G01*
X4699607Y3027984D01*
X1880008Y7517991D02*
G01*
X3310384Y6087618D01*
X4699607Y6087618D01*
X6887392Y659384D02*
G01*
X6724822Y659384D01*
X6724822Y659384D02*
G01*
X6312992Y1071222D01*
X3726456Y1071222D01*
X3087847Y1709826D01*
X2756631Y1709826D01*
X2085393Y2381072D01*
X1789912Y2381072D01*
X1143000Y3027984D01*
X9640216Y2211072D02*
G01*
X8566099Y3285182D01*
X4225800Y3285182D01*
X3683000Y3827983D01*
X2159000Y3827983D02*
G01*
X2317551Y3986529D01*
X8081726Y3986529D01*
X8110189Y3958054D01*
X8486924Y3958054D01*
X9017000Y3427984D01*
X1397000Y3027984D02*
G01*
X1547192Y2877797D01*
X7137400Y2877797D01*
X8890000Y7491984D02*
G01*
X8630815Y7751168D01*
X4907173Y7751168D01*
X4674008Y7517991D01*
X4826000Y379984D02*
G01*
X3773215Y379984D01*
X2357114Y1796084D01*
X2357114Y1875030D01*
X9791700Y2450084D02*
G01*
X9791700Y3366363D01*
X7391623Y5766432D01*
X3377567Y5766432D01*
X1626008Y7517991D01*
X4804790Y4298442D02*
G01*
X3175000Y4298442D01*
D11*
G01*
X8763000Y3427984D03*
D12*
G01*
X9017000Y3427984D03*
G01*
X9271000Y3427984D03*
G01*
X9525000Y3427984D03*
D13*
G01*
X5588000Y3557676D03*
G01*
X5588000Y3069691D03*
D14*
G01*
X889000Y3027984D03*
D15*
G01*
X1143000Y3027984D03*
G01*
X1397000Y3027984D03*
G01*
X1651000Y3027984D03*
G01*
X1905000Y3027984D03*
G01*
X2159000Y3027984D03*
G01*
X2413000Y3027984D03*
G01*
X2667000Y3027984D03*
G01*
X2921000Y3027984D03*
G01*
X3175000Y3027984D03*
G01*
X3429000Y3027984D03*
G01*
X3683000Y3027984D03*
G01*
X3937000Y3027984D03*
G01*
X4191000Y3027984D03*
G01*
X889000Y3827983D03*
G01*
X1143000Y3827983D03*
G01*
X1397000Y3827983D03*
G01*
X1651000Y3827983D03*
G01*
X1905000Y3827983D03*
G01*
X2159000Y3827983D03*
G01*
X2413000Y3827983D03*
G01*
X2667000Y3827983D03*
G01*
X2921000Y3827983D03*
G01*
X3175000Y3827983D03*
G01*
X3429000Y3827983D03*
G01*
X3683000Y3827983D03*
G01*
X3937000Y3827983D03*
G01*
X4191000Y3827983D03*
D16*
G01*
X7759700Y1688084D03*
G01*
X9791700Y1688084D03*
G01*
X254000Y379984D03*
G01*
X2286000Y379984D03*
G01*
X2794000Y379984D03*
G01*
X4826000Y379984D03*
G01*
X9652000Y5459984D03*
G01*
X9652000Y7491984D03*
G01*
X8890000Y5459984D03*
G01*
X8890000Y7491984D03*
G01*
X7759700Y2450084D03*
G01*
X9791700Y2450084D03*
D17*
G01*
X4445000Y2411984D03*
G01*
X4699000Y2411984D03*
G01*
X635000Y2411984D03*
G01*
X889000Y2411984D03*
D18*
G01*
X4928006Y7517993D03*
G01*
X4674006Y7517993D03*
G01*
X4420006Y7517993D03*
G01*
X4166006Y7517993D03*
G01*
X3912006Y7517993D03*
G01*
X3658006Y7517993D03*
G01*
X3404006Y7517993D03*
G01*
X3150006Y7517993D03*
G01*
X2896006Y7517993D03*
G01*
X2642006Y7517993D03*
G01*
X2388006Y7517993D03*
G01*
X2134006Y7517993D03*
G01*
X1880006Y7517993D03*
G01*
X1626006Y7517993D03*
G01*
X1372006Y7517993D03*
D19*
G01*
X1118006Y7517993D03*
D20*
G01*
X567994Y7517993D03*
G01*
X567994Y4417974D03*
G01*
X8068005Y7517993D03*
G01*
X8068005Y4417974D03*
D21*
G01*
X4246879Y1875028D03*
G01*
X4246879Y1424939D03*
G01*
X4897120Y1875028D03*
G01*
X4897120Y1424939D03*
G01*
X2976879Y1875028D03*
G01*
X2976879Y1424939D03*
G01*
X3627120Y1875028D03*
G01*
X3627120Y1424939D03*
G01*
X1706879Y1875028D03*
G01*
X1706879Y1424939D03*
G01*
X2357120Y1875028D03*
G01*
X2357120Y1424939D03*
G01*
X436879Y1875028D03*
G01*
X436879Y1424939D03*
G01*
X1087120Y1875028D03*
G01*
X1087120Y1424939D03*
D22*
G01*
X9173387Y659384D03*
D23*
G01*
X9423400Y659384D03*
D22*
G01*
X6887387Y659384D03*
D23*
G01*
X7137400Y659384D03*
D22*
G01*
X8157387Y659384D03*
D23*
G01*
X8407400Y659384D03*
D22*
G01*
X5871387Y659384D03*
D23*
G01*
X6121400Y659384D03*
D11*
G01*
X8763000Y11427968D03*
D12*
G01*
X9017000Y11427968D03*
G01*
X9271000Y11427968D03*
G01*
X9525000Y11427968D03*
D13*
G01*
X5588000Y11557660D03*
G01*
X5588000Y11069675D03*
D14*
G01*
X889000Y11027968D03*
D15*
G01*
X1143000Y11027968D03*
G01*
X1397000Y11027968D03*
G01*
X1651000Y11027968D03*
G01*
X1905000Y11027968D03*
G01*
X2159000Y11027968D03*
G01*
X2413000Y11027968D03*
G01*
X2667000Y11027968D03*
G01*
X2921000Y11027968D03*
G01*
X3175000Y11027968D03*
G01*
X3429000Y11027968D03*
G01*
X3683000Y11027968D03*
G01*
X3937000Y11027968D03*
G01*
X4191000Y11027968D03*
G01*
X889000Y11827967D03*
G01*
X1143000Y11827967D03*
G01*
X1397000Y11827967D03*
G01*
X1651000Y11827967D03*
G01*
X1905000Y11827967D03*
G01*
X2159000Y11827967D03*
G01*
X2413000Y11827967D03*
G01*
X2667000Y11827967D03*
G01*
X2921000Y11827967D03*
G01*
X3175000Y11827967D03*
G01*
X3429000Y11827967D03*
G01*
X3683000Y11827967D03*
G01*
X3937000Y11827967D03*
G01*
X4191000Y11827967D03*
D16*
G01*
X7759700Y9688068D03*
G01*
X9791700Y9688068D03*
G01*
X254000Y8379968D03*
G01*
X2286000Y8379968D03*
G01*
X2794000Y8379968D03*
G01*
X4826000Y8379968D03*
G01*
X9652000Y13459968D03*
G01*
X9652000Y15491968D03*
G01*
X8890000Y13459968D03*
G01*
X8890000Y15491968D03*
G01*
X7759700Y10450068D03*
G01*
X9791700Y10450068D03*
D17*
G01*
X4445000Y10411968D03*
G01*
X4699000Y10411968D03*
G01*
X635000Y10411968D03*
G01*
X889000Y10411968D03*
D18*
G01*
X4928006Y15517977D03*
G01*
X4674006Y15517977D03*
G01*
X4420006Y15517977D03*
G01*
X4166006Y15517977D03*
G01*
X3912006Y15517977D03*
G01*
X3658006Y15517977D03*
G01*
X3404006Y15517977D03*
G01*
X3150006Y15517977D03*
G01*
X2896006Y15517977D03*
G01*
X2642006Y15517977D03*
G01*
X2388006Y15517977D03*
G01*
X2134006Y15517977D03*
G01*
X1880006Y15517977D03*
G01*
X1626006Y15517977D03*
G01*
X1372006Y15517977D03*
D19*
G01*
X1118006Y15517977D03*
D20*
G01*
X567994Y15517977D03*
G01*
X567994Y12417958D03*
G01*
X8068005Y15517977D03*
G01*
X8068005Y12417958D03*
D21*
G01*
X4246879Y9875012D03*
G01*
X4246879Y9424924D03*
G01*
X4897120Y9875012D03*
G01*
X4897120Y9424924D03*
G01*
X2976879Y9875012D03*
G01*
X2976879Y9424924D03*
G01*
X3627120Y9875012D03*
G01*
X3627120Y9424924D03*
G01*
X1706879Y9875012D03*
G01*
X1706879Y9424924D03*
G01*
X2357120Y9875012D03*
G01*
X2357120Y9424924D03*
G01*
X436879Y9875012D03*
G01*
X436879Y9424924D03*
G01*
X1087120Y9875012D03*
G01*
X1087120Y9424924D03*
D22*
G01*
X9173387Y8659368D03*
D23*
G01*
X9423400Y8659368D03*
D22*
G01*
X6887387Y8659368D03*
D23*
G01*
X7137400Y8659368D03*
D22*
G01*
X8157387Y8659368D03*
D23*
G01*
X8407400Y8659368D03*
D22*
G01*
X5871387Y8659368D03*
D23*
G01*
X6121400Y8659368D03*
D24*
G01*
X3175000Y4298442D03*
G01*
X4804790Y4298442D03*
G01*
X7137400Y2877794D03*
G01*
X9640214Y2211070D03*
G01*
X4699609Y3027984D03*
G01*
X4699609Y6087618D03*
G01*
X3429000Y2755595D03*
G01*
X5148148Y2755595D03*
G01*
X4138955Y3557676D03*
G01*
X8153755Y4063212D03*
G01*
X2690875Y6888708D03*
G01*
X3175000Y12298426D03*
G01*
X4804790Y12298426D03*
G01*
X7137400Y10877778D03*
G01*
X9640214Y10211054D03*
G01*
X4699609Y11027968D03*
G01*
X4699609Y14087602D03*
G01*
X3429000Y10755579D03*
G01*
X5148148Y10755579D03*
G01*
X4138955Y11557660D03*
G01*
X8153755Y12063196D03*
G01*
X2690875Y14888692D03*
M02*
