G04 Layer: TopSilkscreenLayer*
G04 EasyEDA v6.5.22, 2023-01-28 12:43:13*
G04 Gerber Generator version 0.2*
G04 Scale: 100 percent, Rotated: No, Reflected: No *
G04 Dimensions in millimeters *
G04 leading zeros omitted , absolute positions ,4 integer and 5 decimal *
%FSLAX45Y45*%
%MOMM*%

%ADD10C,0.1524*%
%ADD11C,0.2540*%
%ADD12C,0.2032*%
%ADD13C,0.1999*%
%ADD14C,0.1800*%
%ADD15C,0.3000*%
%ADD16C,0.6000*%
%ADD17C,0.0162*%

%LPD*%
D10*
X9132061Y3957320D02*
G01*
X9132061Y3879342D01*
X9137141Y3863847D01*
X9147556Y3853434D01*
X9163304Y3848354D01*
X9173718Y3848354D01*
X9189211Y3853434D01*
X9199625Y3863847D01*
X9204706Y3879342D01*
X9204706Y3957320D01*
X9249409Y3957320D02*
G01*
X9306559Y3957320D01*
X9275572Y3915663D01*
X9291065Y3915663D01*
X9301479Y3910584D01*
X9306559Y3905504D01*
X9311893Y3889755D01*
X9311893Y3879342D01*
X9306559Y3863847D01*
X9296145Y3853434D01*
X9280652Y3848354D01*
X9265158Y3848354D01*
X9249409Y3853434D01*
X9244329Y3858513D01*
X9238995Y3868928D01*
X5193284Y3409442D02*
G01*
X5271261Y3409442D01*
X5286756Y3414521D01*
X5297170Y3424936D01*
X5302250Y3440684D01*
X5302250Y3451097D01*
X5297170Y3466592D01*
X5286756Y3477005D01*
X5271261Y3482086D01*
X5193284Y3482086D01*
X5219191Y3521710D02*
G01*
X5214111Y3521710D01*
X5203697Y3526789D01*
X5198363Y3532123D01*
X5193284Y3542537D01*
X5193284Y3563112D01*
X5198363Y3573526D01*
X5203697Y3578860D01*
X5214111Y3583939D01*
X5224525Y3583939D01*
X5234940Y3578860D01*
X5250434Y3568445D01*
X5302250Y3516376D01*
X5302250Y3589273D01*
X2514600Y4147057D02*
G01*
X2514600Y4069079D01*
X2519679Y4053586D01*
X2530093Y4043171D01*
X2545841Y4038092D01*
X2556256Y4038092D01*
X2571750Y4043171D01*
X2582163Y4053586D01*
X2587243Y4069079D01*
X2587243Y4147057D01*
X2621534Y4126229D02*
G01*
X2631947Y4131563D01*
X2647695Y4147057D01*
X2647695Y4038092D01*
X8775700Y2229357D02*
G01*
X8775700Y2120392D01*
X8775700Y2229357D02*
G01*
X8822436Y2229357D01*
X8837929Y2224278D01*
X8843263Y2218944D01*
X8848343Y2208529D01*
X8848343Y2198115D01*
X8843263Y2187702D01*
X8837929Y2182621D01*
X8822436Y2177542D01*
X8775700Y2177542D01*
X8812022Y2177542D02*
G01*
X8848343Y2120392D01*
X8882634Y2208529D02*
G01*
X8893047Y2213863D01*
X8908795Y2229357D01*
X8908795Y2120392D01*
X8948165Y2203450D02*
G01*
X8948165Y2208529D01*
X8953500Y2218944D01*
X8958579Y2224278D01*
X8968993Y2229357D01*
X8989822Y2229357D01*
X9000236Y2224278D01*
X9005315Y2218944D01*
X9010650Y2208529D01*
X9010650Y2198115D01*
X9005315Y2187702D01*
X8994902Y2172207D01*
X8943086Y2120392D01*
X9015729Y2120392D01*
X1270000Y921257D02*
G01*
X1270000Y812292D01*
X1270000Y921257D02*
G01*
X1316736Y921257D01*
X1332229Y916178D01*
X1337563Y910844D01*
X1342644Y900429D01*
X1342644Y890015D01*
X1337563Y879602D01*
X1332229Y874521D01*
X1316736Y869442D01*
X1270000Y869442D01*
X1306321Y869442D02*
G01*
X1342644Y812292D01*
X1376934Y900429D02*
G01*
X1387347Y905763D01*
X1403095Y921257D01*
X1403095Y812292D01*
X1437386Y900429D02*
G01*
X1447800Y905763D01*
X1463294Y921257D01*
X1463294Y812292D01*
X3810000Y921257D02*
G01*
X3810000Y812292D01*
X3810000Y921257D02*
G01*
X3856736Y921257D01*
X3872229Y916178D01*
X3877563Y910844D01*
X3882643Y900429D01*
X3882643Y890015D01*
X3877563Y879602D01*
X3872229Y874521D01*
X3856736Y869442D01*
X3810000Y869442D01*
X3846322Y869442D02*
G01*
X3882643Y812292D01*
X3916934Y900429D02*
G01*
X3927347Y905763D01*
X3943095Y921257D01*
X3943095Y812292D01*
X4008374Y921257D02*
G01*
X3992879Y916178D01*
X3982465Y900429D01*
X3977386Y874521D01*
X3977386Y859028D01*
X3982465Y832865D01*
X3992879Y817371D01*
X4008374Y812292D01*
X4018788Y812292D01*
X4034536Y817371D01*
X4044950Y832865D01*
X4050029Y859028D01*
X4050029Y874521D01*
X4044950Y900429D01*
X4034536Y916178D01*
X4018788Y921257D01*
X4008374Y921257D01*
X9231884Y6597142D02*
G01*
X9340850Y6597142D01*
X9231884Y6597142D02*
G01*
X9231884Y6643878D01*
X9236963Y6659371D01*
X9242297Y6664705D01*
X9252711Y6669786D01*
X9263125Y6669786D01*
X9273540Y6664705D01*
X9278620Y6659371D01*
X9283700Y6643878D01*
X9283700Y6597142D01*
X9283700Y6633463D02*
G01*
X9340850Y6669786D01*
X9268206Y6771639D02*
G01*
X9283700Y6766560D01*
X9294113Y6756145D01*
X9299447Y6740652D01*
X9299447Y6735318D01*
X9294113Y6719823D01*
X9283700Y6709410D01*
X9268206Y6704076D01*
X9263125Y6704076D01*
X9247377Y6709410D01*
X9236963Y6719823D01*
X9231884Y6735318D01*
X9231884Y6740652D01*
X9236963Y6756145D01*
X9247377Y6766560D01*
X9268206Y6771639D01*
X9294113Y6771639D01*
X9320275Y6766560D01*
X9335770Y6756145D01*
X9340850Y6740652D01*
X9340850Y6730237D01*
X9335770Y6714489D01*
X9325356Y6709410D01*
X8469884Y6597142D02*
G01*
X8578850Y6597142D01*
X8469884Y6597142D02*
G01*
X8469884Y6643878D01*
X8474963Y6659371D01*
X8480297Y6664705D01*
X8490711Y6669786D01*
X8501125Y6669786D01*
X8511540Y6664705D01*
X8516620Y6659371D01*
X8521700Y6643878D01*
X8521700Y6597142D01*
X8521700Y6633463D02*
G01*
X8578850Y6669786D01*
X8469884Y6730237D02*
G01*
X8474963Y6714489D01*
X8485377Y6709410D01*
X8495791Y6709410D01*
X8506206Y6714489D01*
X8511540Y6724904D01*
X8516620Y6745731D01*
X8521700Y6761226D01*
X8532113Y6771639D01*
X8542527Y6776973D01*
X8558275Y6776973D01*
X8568690Y6771639D01*
X8573770Y6766560D01*
X8578850Y6750812D01*
X8578850Y6730237D01*
X8573770Y6714489D01*
X8568690Y6709410D01*
X8558275Y6704076D01*
X8542527Y6704076D01*
X8532113Y6709410D01*
X8521700Y6719823D01*
X8516620Y6735318D01*
X8511540Y6756145D01*
X8506206Y6766560D01*
X8495791Y6771639D01*
X8485377Y6771639D01*
X8474963Y6766560D01*
X8469884Y6750812D01*
X8469884Y6730237D01*
X8775700Y2991357D02*
G01*
X8775700Y2882392D01*
X8775700Y2991357D02*
G01*
X8822436Y2991357D01*
X8837929Y2986278D01*
X8843263Y2980944D01*
X8848343Y2970529D01*
X8848343Y2960115D01*
X8843263Y2949702D01*
X8837929Y2944621D01*
X8822436Y2939542D01*
X8775700Y2939542D01*
X8812022Y2939542D02*
G01*
X8848343Y2882392D01*
X8955531Y2991357D02*
G01*
X8903461Y2882392D01*
X8882634Y2991357D02*
G01*
X8955531Y2991357D01*
X4228084Y2507742D02*
G01*
X4337050Y2507742D01*
X4337050Y2507742D02*
G01*
X4337050Y2569971D01*
X4228084Y2604262D02*
G01*
X4337050Y2604262D01*
X4228084Y2604262D02*
G01*
X4228084Y2671826D01*
X4279900Y2604262D02*
G01*
X4279900Y2645918D01*
X4337050Y2604262D02*
G01*
X4337050Y2671826D01*
X4228084Y2706115D02*
G01*
X4337050Y2706115D01*
X4228084Y2706115D02*
G01*
X4228084Y2742692D01*
X4233163Y2758186D01*
X4243577Y2768600D01*
X4253991Y2773679D01*
X4269740Y2779013D01*
X4295647Y2779013D01*
X4311141Y2773679D01*
X4321556Y2768600D01*
X4331970Y2758186D01*
X4337050Y2742692D01*
X4337050Y2706115D01*
X4253991Y2818384D02*
G01*
X4248911Y2818384D01*
X4238497Y2823718D01*
X4233163Y2828797D01*
X4228084Y2839212D01*
X4228084Y2860039D01*
X4233163Y2870454D01*
X4238497Y2875534D01*
X4248911Y2880868D01*
X4259325Y2880868D01*
X4269740Y2875534D01*
X4285234Y2865120D01*
X4337050Y2813304D01*
X4337050Y2885947D01*
X418084Y2507742D02*
G01*
X527050Y2507742D01*
X527050Y2507742D02*
G01*
X527050Y2569971D01*
X418084Y2604262D02*
G01*
X527050Y2604262D01*
X418084Y2604262D02*
G01*
X418084Y2671826D01*
X469900Y2604262D02*
G01*
X469900Y2645918D01*
X527050Y2604262D02*
G01*
X527050Y2671826D01*
X418084Y2706115D02*
G01*
X527050Y2706115D01*
X418084Y2706115D02*
G01*
X418084Y2742692D01*
X423163Y2758186D01*
X433578Y2768600D01*
X443992Y2773679D01*
X459739Y2779013D01*
X485647Y2779013D01*
X501142Y2773679D01*
X511555Y2768600D01*
X521970Y2758186D01*
X527050Y2742692D01*
X527050Y2706115D01*
X438912Y2813304D02*
G01*
X433578Y2823718D01*
X418084Y2839212D01*
X527050Y2839212D01*
X4318000Y8033258D02*
G01*
X4318000Y7924292D01*
X4318000Y7924292D02*
G01*
X4380229Y7924292D01*
X4492497Y8007350D02*
G01*
X4487418Y8017763D01*
X4477004Y8028178D01*
X4466590Y8033258D01*
X4445761Y8033258D01*
X4435347Y8028178D01*
X4424934Y8017763D01*
X4419854Y8007350D01*
X4414520Y7991602D01*
X4414520Y7965694D01*
X4419854Y7950200D01*
X4424934Y7939786D01*
X4435347Y7929371D01*
X4445761Y7924292D01*
X4466590Y7924292D01*
X4477004Y7929371D01*
X4487418Y7939786D01*
X4492497Y7950200D01*
X4526788Y8033258D02*
G01*
X4526788Y7924292D01*
X4526788Y8033258D02*
G01*
X4563109Y8033258D01*
X4578858Y8028178D01*
X4589272Y8017763D01*
X4594352Y8007350D01*
X4599686Y7991602D01*
X4599686Y7965694D01*
X4594352Y7950200D01*
X4589272Y7939786D01*
X4578858Y7929371D01*
X4563109Y7924292D01*
X4526788Y7924292D01*
X4633975Y8012429D02*
G01*
X4644390Y8017763D01*
X4659884Y8033258D01*
X4659884Y7924292D01*
X4546600Y2242057D02*
G01*
X4546600Y2133092D01*
X4619243Y2242057D02*
G01*
X4546600Y2169413D01*
X4572508Y2195321D02*
G01*
X4619243Y2133092D01*
X4653534Y2242057D02*
G01*
X4653534Y2133092D01*
X4653534Y2242057D02*
G01*
X4721097Y2242057D01*
X4653534Y2190242D02*
G01*
X4695190Y2190242D01*
X4653534Y2133092D02*
G01*
X4721097Y2133092D01*
X4755388Y2242057D02*
G01*
X4797043Y2190242D01*
X4797043Y2133092D01*
X4838700Y2242057D02*
G01*
X4797043Y2190242D01*
X4924806Y2242057D02*
G01*
X4872990Y2169413D01*
X4950713Y2169413D01*
X4924806Y2242057D02*
G01*
X4924806Y2133092D01*
X3276600Y2242057D02*
G01*
X3276600Y2133092D01*
X3349243Y2242057D02*
G01*
X3276600Y2169413D01*
X3302508Y2195321D02*
G01*
X3349243Y2133092D01*
X3383534Y2242057D02*
G01*
X3383534Y2133092D01*
X3383534Y2242057D02*
G01*
X3451097Y2242057D01*
X3383534Y2190242D02*
G01*
X3425190Y2190242D01*
X3383534Y2133092D02*
G01*
X3451097Y2133092D01*
X3485388Y2242057D02*
G01*
X3527043Y2190242D01*
X3527043Y2133092D01*
X3568700Y2242057D02*
G01*
X3527043Y2190242D01*
X3613150Y2242057D02*
G01*
X3670300Y2242057D01*
X3639311Y2200402D01*
X3654806Y2200402D01*
X3665220Y2195321D01*
X3670300Y2190242D01*
X3675634Y2174494D01*
X3675634Y2164079D01*
X3670300Y2148586D01*
X3660140Y2138171D01*
X3644391Y2133092D01*
X3628897Y2133092D01*
X3613150Y2138171D01*
X3608070Y2143252D01*
X3602990Y2153665D01*
X2006600Y2242057D02*
G01*
X2006600Y2133092D01*
X2079243Y2242057D02*
G01*
X2006600Y2169413D01*
X2032508Y2195321D02*
G01*
X2079243Y2133092D01*
X2113534Y2242057D02*
G01*
X2113534Y2133092D01*
X2113534Y2242057D02*
G01*
X2181097Y2242057D01*
X2113534Y2190242D02*
G01*
X2155190Y2190242D01*
X2113534Y2133092D02*
G01*
X2181097Y2133092D01*
X2215388Y2242057D02*
G01*
X2257043Y2190242D01*
X2257043Y2133092D01*
X2298700Y2242057D02*
G01*
X2257043Y2190242D01*
X2338070Y2216150D02*
G01*
X2338070Y2221229D01*
X2343150Y2231644D01*
X2348484Y2236978D01*
X2358897Y2242057D01*
X2379725Y2242057D01*
X2390140Y2236978D01*
X2395220Y2231644D01*
X2400300Y2221229D01*
X2400300Y2210815D01*
X2395220Y2200402D01*
X2384806Y2184907D01*
X2332990Y2133092D01*
X2405634Y2133092D01*
X736600Y2242057D02*
G01*
X736600Y2133092D01*
X809244Y2242057D02*
G01*
X736600Y2169413D01*
X762507Y2195321D02*
G01*
X809244Y2133092D01*
X843534Y2242057D02*
G01*
X843534Y2133092D01*
X843534Y2242057D02*
G01*
X911097Y2242057D01*
X843534Y2190242D02*
G01*
X885189Y2190242D01*
X843534Y2133092D02*
G01*
X911097Y2133092D01*
X945387Y2242057D02*
G01*
X987044Y2190242D01*
X987044Y2133092D01*
X1028700Y2242057D02*
G01*
X987044Y2190242D01*
X1062989Y2221229D02*
G01*
X1073150Y2226563D01*
X1088897Y2242057D01*
X1088897Y2133092D01*
X9374377Y1149350D02*
G01*
X9369043Y1159763D01*
X9358629Y1170178D01*
X9348470Y1175257D01*
X9327641Y1175257D01*
X9317227Y1170178D01*
X9306813Y1159763D01*
X9301479Y1149350D01*
X9296400Y1133602D01*
X9296400Y1107694D01*
X9301479Y1092200D01*
X9306813Y1081786D01*
X9317227Y1071371D01*
X9327641Y1066292D01*
X9348470Y1066292D01*
X9358629Y1071371D01*
X9369043Y1081786D01*
X9374377Y1092200D01*
X9439909Y1175257D02*
G01*
X9429495Y1170178D01*
X9419081Y1159763D01*
X9413747Y1149350D01*
X9408668Y1133602D01*
X9408668Y1107694D01*
X9413747Y1092200D01*
X9419081Y1081786D01*
X9429495Y1071371D01*
X9439909Y1066292D01*
X9460484Y1066292D01*
X9470897Y1071371D01*
X9481311Y1081786D01*
X9486645Y1092200D01*
X9491725Y1107694D01*
X9491725Y1133602D01*
X9486645Y1149350D01*
X9481311Y1159763D01*
X9470897Y1170178D01*
X9460484Y1175257D01*
X9439909Y1175257D01*
X9526015Y1175257D02*
G01*
X9526015Y1066292D01*
X9526015Y1175257D02*
G01*
X9598659Y1066292D01*
X9598659Y1175257D02*
G01*
X9598659Y1066292D01*
X9685020Y1175257D02*
G01*
X9632950Y1102613D01*
X9710927Y1102613D01*
X9685020Y1175257D02*
G01*
X9685020Y1066292D01*
X7088377Y1149350D02*
G01*
X7083043Y1159763D01*
X7072629Y1170178D01*
X7062470Y1175257D01*
X7041641Y1175257D01*
X7031227Y1170178D01*
X7020813Y1159763D01*
X7015479Y1149350D01*
X7010400Y1133602D01*
X7010400Y1107694D01*
X7015479Y1092200D01*
X7020813Y1081786D01*
X7031227Y1071371D01*
X7041641Y1066292D01*
X7062470Y1066292D01*
X7072629Y1071371D01*
X7083043Y1081786D01*
X7088377Y1092200D01*
X7153909Y1175257D02*
G01*
X7143495Y1170178D01*
X7133081Y1159763D01*
X7127747Y1149350D01*
X7122668Y1133602D01*
X7122668Y1107694D01*
X7127747Y1092200D01*
X7133081Y1081786D01*
X7143495Y1071371D01*
X7153909Y1066292D01*
X7174484Y1066292D01*
X7184897Y1071371D01*
X7195311Y1081786D01*
X7200645Y1092200D01*
X7205725Y1107694D01*
X7205725Y1133602D01*
X7200645Y1149350D01*
X7195311Y1159763D01*
X7184897Y1170178D01*
X7174484Y1175257D01*
X7153909Y1175257D01*
X7240015Y1175257D02*
G01*
X7240015Y1066292D01*
X7240015Y1175257D02*
G01*
X7312659Y1066292D01*
X7312659Y1175257D02*
G01*
X7312659Y1066292D01*
X7357363Y1175257D02*
G01*
X7414513Y1175257D01*
X7383525Y1133602D01*
X7399020Y1133602D01*
X7409434Y1128521D01*
X7414513Y1123442D01*
X7419847Y1107694D01*
X7419847Y1097279D01*
X7414513Y1081786D01*
X7404100Y1071371D01*
X7388606Y1066292D01*
X7373111Y1066292D01*
X7357363Y1071371D01*
X7352284Y1076452D01*
X7346950Y1086865D01*
X8358377Y1149350D02*
G01*
X8353043Y1159763D01*
X8342629Y1170178D01*
X8332470Y1175257D01*
X8311641Y1175257D01*
X8301227Y1170178D01*
X8290813Y1159763D01*
X8285479Y1149350D01*
X8280400Y1133602D01*
X8280400Y1107694D01*
X8285479Y1092200D01*
X8290813Y1081786D01*
X8301227Y1071371D01*
X8311641Y1066292D01*
X8332470Y1066292D01*
X8342629Y1071371D01*
X8353043Y1081786D01*
X8358377Y1092200D01*
X8423909Y1175257D02*
G01*
X8413495Y1170178D01*
X8403081Y1159763D01*
X8397747Y1149350D01*
X8392668Y1133602D01*
X8392668Y1107694D01*
X8397747Y1092200D01*
X8403081Y1081786D01*
X8413495Y1071371D01*
X8423909Y1066292D01*
X8444484Y1066292D01*
X8454897Y1071371D01*
X8465311Y1081786D01*
X8470645Y1092200D01*
X8475725Y1107694D01*
X8475725Y1133602D01*
X8470645Y1149350D01*
X8465311Y1159763D01*
X8454897Y1170178D01*
X8444484Y1175257D01*
X8423909Y1175257D01*
X8510015Y1175257D02*
G01*
X8510015Y1066292D01*
X8510015Y1175257D02*
G01*
X8582659Y1066292D01*
X8582659Y1175257D02*
G01*
X8582659Y1066292D01*
X8622284Y1149350D02*
G01*
X8622284Y1154429D01*
X8627363Y1164844D01*
X8632697Y1170178D01*
X8643111Y1175257D01*
X8663940Y1175257D01*
X8674100Y1170178D01*
X8679434Y1164844D01*
X8684513Y1154429D01*
X8684513Y1144015D01*
X8679434Y1133602D01*
X8669020Y1118107D01*
X8616950Y1066292D01*
X8689847Y1066292D01*
X6072377Y1149350D02*
G01*
X6067043Y1159763D01*
X6056629Y1170178D01*
X6046470Y1175257D01*
X6025641Y1175257D01*
X6015227Y1170178D01*
X6004813Y1159763D01*
X5999479Y1149350D01*
X5994400Y1133602D01*
X5994400Y1107694D01*
X5999479Y1092200D01*
X6004813Y1081786D01*
X6015227Y1071371D01*
X6025641Y1066292D01*
X6046470Y1066292D01*
X6056629Y1071371D01*
X6067043Y1081786D01*
X6072377Y1092200D01*
X6137909Y1175257D02*
G01*
X6127495Y1170178D01*
X6117081Y1159763D01*
X6111747Y1149350D01*
X6106668Y1133602D01*
X6106668Y1107694D01*
X6111747Y1092200D01*
X6117081Y1081786D01*
X6127495Y1071371D01*
X6137909Y1066292D01*
X6158484Y1066292D01*
X6168897Y1071371D01*
X6179311Y1081786D01*
X6184645Y1092200D01*
X6189725Y1107694D01*
X6189725Y1133602D01*
X6184645Y1149350D01*
X6179311Y1159763D01*
X6168897Y1170178D01*
X6158484Y1175257D01*
X6137909Y1175257D01*
X6224015Y1175257D02*
G01*
X6224015Y1066292D01*
X6224015Y1175257D02*
G01*
X6296659Y1066292D01*
X6296659Y1175257D02*
G01*
X6296659Y1066292D01*
X6330950Y1154429D02*
G01*
X6341363Y1159763D01*
X6357111Y1175257D01*
X6357111Y1066292D01*
D11*
X9774936Y3199129D02*
G01*
X9774936Y3783167D01*
X9773998Y3784104D01*
X8514001Y3784104D01*
X8514001Y3199129D01*
D12*
X9461500Y3199129D02*
G01*
X9461500Y3358642D01*
X9334500Y3358642D01*
X9334500Y3199129D01*
X9207500Y3199129D02*
G01*
X9207500Y3358642D01*
X9080500Y3358642D01*
X9080500Y3199129D01*
X8953500Y3199129D02*
G01*
X8953500Y3358642D01*
X8826500Y3358642D01*
X8826500Y3199129D01*
X8513063Y3199129D02*
G01*
X9525000Y3199129D01*
X9774936Y3199129D01*
D11*
X5823000Y3769842D02*
G01*
X5823000Y3099841D01*
X5352999Y3099841D02*
G01*
X5352999Y3769842D01*
X770001Y3612642D02*
G01*
X770001Y3814142D01*
X4309999Y3814142D01*
X4309999Y3284141D01*
X770001Y3284141D01*
X770001Y3485642D01*
X8001000Y1560321D02*
G01*
X8001000Y2058162D01*
X8001000Y2058162D02*
G01*
X9550400Y2058162D01*
X9550400Y2058162D02*
G01*
X9550400Y1560321D01*
X9550400Y1560321D02*
G01*
X8001000Y1560321D01*
X495300Y252221D02*
G01*
X495300Y750062D01*
X495300Y750062D02*
G01*
X2044700Y750062D01*
X2044700Y750062D02*
G01*
X2044700Y252221D01*
X2044700Y252221D02*
G01*
X495300Y252221D01*
X3035300Y252221D02*
G01*
X3035300Y750062D01*
X3035300Y750062D02*
G01*
X4584700Y750062D01*
X4584700Y750062D02*
G01*
X4584700Y252221D01*
X4584700Y252221D02*
G01*
X3035300Y252221D01*
X9900920Y5822442D02*
G01*
X9403079Y5822442D01*
X9403079Y5822442D02*
G01*
X9403079Y7371842D01*
X9403079Y7371842D02*
G01*
X9900920Y7371842D01*
X9900920Y7371842D02*
G01*
X9900920Y5822442D01*
X9138920Y5822442D02*
G01*
X8641079Y5822442D01*
X8641079Y5822442D02*
G01*
X8641079Y7371842D01*
X8641079Y7371842D02*
G01*
X9138920Y7371842D01*
X9138920Y7371842D02*
G01*
X9138920Y5822442D01*
X8001000Y2322321D02*
G01*
X8001000Y2820162D01*
X8001000Y2820162D02*
G01*
X9550400Y2820162D01*
X9550400Y2820162D02*
G01*
X9550400Y2322321D01*
X9550400Y2322321D02*
G01*
X8001000Y2322321D01*
X4740147Y2406142D02*
G01*
X4740681Y2660929D01*
X930147Y2406142D02*
G01*
X930681Y2660929D01*
D13*
X1219200Y7105142D02*
G01*
X7442200Y7105142D01*
X7442200Y7054342D01*
X1219200Y7054342D01*
X1219200Y7105142D01*
X8331200Y7892542D02*
G01*
X8331200Y4285742D01*
X304800Y4285742D01*
X304800Y7892542D01*
X8331200Y7892542D01*
X7721600Y7333742D02*
G01*
X7721600Y4844542D01*
X914400Y4844542D01*
X914400Y7333742D01*
X7721600Y7333742D01*
X7442200Y6698742D02*
G01*
X7442200Y5301742D01*
X1219200Y5301742D01*
X1219200Y6698742D01*
X7442200Y6698742D01*
D11*
X4902200Y1883186D02*
G01*
X4902200Y1659097D01*
X4326986Y2075942D02*
G01*
X4817013Y2075942D01*
X4241800Y1883186D02*
G01*
X4241800Y1659097D01*
X4326986Y1466342D02*
G01*
X4817013Y1466342D01*
X3632200Y1883186D02*
G01*
X3632200Y1659097D01*
X3056986Y2075942D02*
G01*
X3547013Y2075942D01*
X2971800Y1883186D02*
G01*
X2971800Y1659097D01*
X3056986Y1466342D02*
G01*
X3547013Y1466342D01*
X2362200Y1883186D02*
G01*
X2362200Y1659097D01*
X1786986Y2075942D02*
G01*
X2277013Y2075942D01*
X1701800Y1883186D02*
G01*
X1701800Y1659097D01*
X1786986Y1466342D02*
G01*
X2277013Y1466342D01*
X1092200Y1883186D02*
G01*
X1092200Y1659097D01*
X516986Y2075942D02*
G01*
X1007013Y2075942D01*
X431800Y1883186D02*
G01*
X431800Y1659097D01*
X516986Y1466342D02*
G01*
X1007013Y1466342D01*
D14*
X8918387Y1025540D02*
G01*
X9098389Y1025540D01*
X9098389Y950541D01*
X8918387Y950541D01*
X8918387Y1025540D01*
X8918387Y430542D01*
X9678385Y430542D01*
X9678385Y1025540D01*
X8918387Y1025540D01*
X9498388Y1025540D02*
G01*
X9498388Y950541D01*
X9678385Y950541D01*
X9678385Y1025540D01*
X9498388Y1025540D01*
X8918387Y800541D02*
G01*
X8993388Y800541D01*
X8993388Y505541D01*
X9298388Y505541D01*
X9603386Y505541D01*
X9603386Y800541D01*
X9678385Y800541D01*
X9248388Y1025540D02*
G01*
X9248388Y950541D01*
X9348386Y950541D01*
X9348386Y1025540D01*
X9248388Y1025540D01*
X6632387Y1025540D02*
G01*
X6812389Y1025540D01*
X6812389Y950541D01*
X6632387Y950541D01*
X6632387Y1025540D01*
X6632387Y430542D01*
X7392385Y430542D01*
X7392385Y1025540D01*
X6632387Y1025540D01*
X7212388Y1025540D02*
G01*
X7212388Y950541D01*
X7392385Y950541D01*
X7392385Y1025540D01*
X7212388Y1025540D01*
X6632387Y800541D02*
G01*
X6707388Y800541D01*
X6707388Y505541D01*
X7012388Y505541D01*
X7317386Y505541D01*
X7317386Y800541D01*
X7392385Y800541D01*
X6962388Y1025540D02*
G01*
X6962388Y950541D01*
X7062386Y950541D01*
X7062386Y1025540D01*
X6962388Y1025540D01*
X7902387Y1025540D02*
G01*
X8082389Y1025540D01*
X8082389Y950541D01*
X7902387Y950541D01*
X7902387Y1025540D01*
X7902387Y430542D01*
X8662385Y430542D01*
X8662385Y1025540D01*
X7902387Y1025540D01*
X8482388Y1025540D02*
G01*
X8482388Y950541D01*
X8662385Y950541D01*
X8662385Y1025540D01*
X8482388Y1025540D01*
X7902387Y800541D02*
G01*
X7977388Y800541D01*
X7977388Y505541D01*
X8282388Y505541D01*
X8587386Y505541D01*
X8587386Y800541D01*
X8662385Y800541D01*
X8232388Y1025540D02*
G01*
X8232388Y950541D01*
X8332386Y950541D01*
X8332386Y1025540D01*
X8232388Y1025540D01*
X5616387Y1025540D02*
G01*
X5796389Y1025540D01*
X5796389Y950541D01*
X5616387Y950541D01*
X5616387Y1025540D01*
X5616387Y430542D01*
X6376385Y430542D01*
X6376385Y1025540D01*
X5616387Y1025540D01*
X6196388Y1025540D02*
G01*
X6196388Y950541D01*
X6376385Y950541D01*
X6376385Y1025540D01*
X6196388Y1025540D01*
X5616387Y800541D02*
G01*
X5691388Y800541D01*
X5691388Y505541D01*
X5996388Y505541D01*
X6301386Y505541D01*
X6301386Y800541D01*
X6376385Y800541D01*
X5946388Y1025540D02*
G01*
X5946388Y950541D01*
X6046386Y950541D01*
X6046386Y1025540D01*
X5946388Y1025540D01*
D11*
G75*
G01*
X5352999Y3099841D02*
G03*
X5822950Y3099816I234976J-12D01*
G75*
G01*
X5823001Y3769843D02*
G03*
X5353050Y3769868I-234976J12D01*
D15*
G75*
G01*
X745998Y3169158D02*
G03*
X745998Y3169412I15001J127D01*
D11*
G75*
G01*
X769874Y3485642D02*
G03*
X769874Y3612642I0J63500D01*
D16*
G75*
G01*
X839978Y3384042D02*
G03*
X839978Y3384550I29999J254D01*
D11*
G75*
G01*
X4740148Y2659685D02*
G03*
X4740148Y2406193I-154710J-126746D01*
G75*
G01*
X930148Y2659685D02*
G03*
X930148Y2406193I-154710J-126746D01*
G75*
G01
X4432300Y1948942D02*
G03X4432300Y1948942I-50800J0D01*
G75*
G01
X4419600Y1593342D02*
G03X4419600Y1593342I-50800J0D01*
G75*
G01
X4813300Y1948942D02*
G03X4813300Y1948942I-50800J0D01*
G75*
G01
X4800600Y1593342D02*
G03X4800600Y1593342I-50800J0D01*
G75*
G01
X4686300Y1771142D02*
G03X4686300Y1771142I-114300J0D01*
G75*
G01
X4722114Y1771142D02*
G03X4722114Y1771142I-150114J0D01*
G75*
G01
X3162300Y1948942D02*
G03X3162300Y1948942I-50800J0D01*
G75*
G01
X3149600Y1593342D02*
G03X3149600Y1593342I-50800J0D01*
G75*
G01
X3543300Y1948942D02*
G03X3543300Y1948942I-50800J0D01*
G75*
G01
X3530600Y1593342D02*
G03X3530600Y1593342I-50800J0D01*
G75*
G01
X3416300Y1771142D02*
G03X3416300Y1771142I-114300J0D01*
G75*
G01
X3452114Y1771142D02*
G03X3452114Y1771142I-150114J0D01*
G75*
G01
X1892300Y1948942D02*
G03X1892300Y1948942I-50800J0D01*
G75*
G01
X1879600Y1593342D02*
G03X1879600Y1593342I-50800J0D01*
G75*
G01
X2273300Y1948942D02*
G03X2273300Y1948942I-50800J0D01*
G75*
G01
X2260600Y1593342D02*
G03X2260600Y1593342I-50800J0D01*
G75*
G01
X2146300Y1771142D02*
G03X2146300Y1771142I-114300J0D01*
G75*
G01
X2182114Y1771142D02*
G03X2182114Y1771142I-150114J0D01*
G75*
G01
X622300Y1948942D02*
G03X622300Y1948942I-50800J0D01*
G75*
G01
X609600Y1593342D02*
G03X609600Y1593342I-50800J0D01*
G75*
G01
X1003300Y1948942D02*
G03X1003300Y1948942I-50800J0D01*
G75*
G01
X990600Y1593342D02*
G03X990600Y1593342I-50800J0D01*
G75*
G01
X876300Y1771142D02*
G03X876300Y1771142I-114300J0D01*
G75*
G01
X912114Y1771142D02*
G03X912114Y1771142I-150114J0D01*
M02*
