G04 Layer: BottomLayer*
G04 EasyEDA v6.5.22, 2023-01-29 18:53:10*
G04 Gerber Generator version 0.2*
G04 Scale: 100 percent, Rotated: No, Reflected: No *
G04 Dimensions in millimeters *
G04 leading zeros omitted , absolute positions ,4 integer and 5 decimal *
%FSLAX45Y45*%
%MOMM*%

%ADD10C,0.8000*%
%ADD11R,1.2954X1.2954*%
%ADD12C,1.2954*%
%ADD13C,1.3000*%
%ADD14R,1.5000X1.5000*%
%ADD15C,1.5000*%
%ADD16C,1.8796*%
%ADD17C,1.6510*%
%ADD18C,2.0320*%
%ADD19R,2.0320X2.0320*%
%ADD20C,3.0480*%
%ADD21C,1.8000*%
%ADD22R,1.7500X1.7500*%
%ADD23C,1.7500*%
%ADD24C,1.5000*%
%ADD25C,0.0193*%

%LPD*%
D10*
X4060675Y3589474D02*
G01*
X3441674Y3589474D01*
X2921000Y3068800D01*
X2921000Y3027984D01*
X4759523Y3041545D02*
G01*
X4445000Y2727022D01*
X4445000Y2411984D01*
X5261731Y2189708D02*
G01*
X5261731Y2419982D01*
X8226325Y5384571D01*
X8226325Y5472709D01*
X4734407Y5959246D02*
G01*
X4734407Y3571392D01*
X4191000Y3027984D01*
X9433707Y5241696D02*
G01*
X7983860Y3791838D01*
X7983860Y1912238D01*
X7759700Y1688084D01*
X9652000Y5459984D02*
G01*
X9433707Y5241696D01*
X7567376Y5161125D02*
G01*
X8103008Y5696762D01*
X8978615Y5696762D01*
X9433707Y5241696D01*
X7759700Y1688084D02*
G01*
X7741084Y1669468D01*
X7741084Y932588D01*
X889000Y2411984D02*
G01*
X889000Y2645892D01*
X683821Y2851076D01*
X683821Y3160013D01*
X869695Y3345893D01*
X1989348Y3345893D01*
X2413000Y3769537D01*
X2413000Y3827983D01*
X1118008Y7517991D02*
G01*
X1118008Y5159171D01*
X2413000Y3864180D01*
X2413000Y3827983D01*
X4928008Y7517991D02*
G01*
X4990058Y7455943D01*
X4990058Y5389371D01*
X9525000Y3427984D02*
G01*
X9525000Y2799209D01*
X8157392Y1431597D01*
X8157392Y659384D01*
X767079Y4793005D02*
G01*
X523570Y4793005D01*
X285422Y4554854D01*
X285422Y3960113D01*
X365125Y3880408D01*
X3429000Y3827983D02*
G01*
X3429000Y3884396D01*
X2519324Y4794072D01*
X2423342Y4794072D01*
X3683000Y3827983D02*
G01*
X3683000Y3997121D01*
X3421608Y4258513D01*
X3937000Y3827983D02*
G01*
X3937000Y4059963D01*
X2134008Y5862954D01*
X2134008Y7517991D01*
X2388008Y7517991D02*
G01*
X2388008Y7331075D01*
X4191000Y5528078D01*
X4191000Y3827983D01*
X2286000Y379984D02*
G01*
X1317043Y1348940D01*
X1317043Y1645109D01*
X1087120Y1875030D01*
X9652000Y7491984D02*
G01*
X9236732Y7491984D01*
X5056583Y3311829D01*
X5056583Y2034486D01*
X4897114Y1875030D01*
X3627114Y1875030D02*
G01*
X3852031Y1650108D01*
X6475684Y1650108D01*
X7869509Y256283D01*
X9337067Y256283D01*
X9791700Y710923D01*
X9791700Y1688084D01*
X4166008Y7517991D02*
G01*
X4166008Y7604709D01*
X4315792Y7754493D01*
X5032425Y7754493D01*
X5207657Y7579258D01*
X5207657Y3779801D01*
X4554377Y3126513D01*
X4554377Y3087118D01*
X4287997Y2820746D01*
X3848943Y2820746D01*
X3683000Y2986684D01*
X3683000Y3027984D01*
X8955831Y659384D02*
G01*
X8726164Y429717D01*
X7953834Y429717D01*
X7533406Y850137D01*
X7533406Y4297022D01*
X8696375Y5459984D01*
X8890000Y5459984D01*
X9173392Y659384D02*
G01*
X8955831Y659384D01*
X6887392Y659384D02*
G01*
X6669831Y659384D01*
X1143000Y3027984D02*
G01*
X1143000Y2973400D01*
X2032000Y2084400D01*
X2032000Y1427200D01*
X2762981Y696213D01*
X5117282Y696213D01*
X5372732Y440768D01*
X6451216Y440768D01*
X6669831Y659384D01*
X1087120Y1424937D02*
G01*
X1087120Y1541452D01*
X417370Y2211196D01*
X417370Y3642512D01*
X570278Y3795422D01*
X570278Y3840045D01*
X972238Y4242005D01*
X972238Y4877991D01*
X874674Y4975555D01*
X874674Y7665869D01*
X958570Y7749766D01*
X1277744Y7749766D01*
X1372008Y7655509D01*
X1372008Y7517991D01*
X2504925Y1572742D02*
G01*
X2588257Y1656079D01*
X2588257Y2482745D01*
X2413000Y2658008D01*
X2413000Y3027984D01*
X2504925Y1572742D02*
G01*
X2357114Y1424937D01*
X3627114Y1424937D02*
G01*
X3403191Y1201013D01*
X2876649Y1201013D01*
X2504925Y1572742D01*
X3937000Y3027984D02*
G01*
X3937000Y3175609D01*
X4420008Y3658618D01*
X4420008Y7517991D01*
X7323658Y1978913D02*
G01*
X7323658Y4185208D01*
X4060675Y11589458D02*
G01*
X3441674Y11589458D01*
X2921000Y11068784D01*
X2921000Y11027968D01*
X4759523Y11041529D02*
G01*
X4445000Y10727006D01*
X4445000Y10411968D01*
X5261731Y10189692D02*
G01*
X5261731Y10419966D01*
X8226325Y13384555D01*
X8226325Y13472693D01*
X4734407Y13959230D02*
G01*
X4734407Y11571376D01*
X4191000Y11027968D01*
X9433707Y13241680D02*
G01*
X7983860Y11791822D01*
X7983860Y9912222D01*
X7759700Y9688068D01*
X9652000Y13459968D02*
G01*
X9433707Y13241680D01*
X7567376Y13161109D02*
G01*
X8103008Y13696746D01*
X8978615Y13696746D01*
X9433707Y13241680D01*
X7759700Y9688068D02*
G01*
X7741084Y9669452D01*
X7741084Y8932572D01*
X889000Y10411968D02*
G01*
X889000Y10645876D01*
X683821Y10851060D01*
X683821Y11159997D01*
X869695Y11345877D01*
X1989348Y11345877D01*
X2413000Y11769521D01*
X2413000Y11827967D01*
X1118008Y15517975D02*
G01*
X1118008Y13159155D01*
X2413000Y11864164D01*
X2413000Y11827967D01*
X4928008Y15517975D02*
G01*
X4990058Y15455927D01*
X4990058Y13389355D01*
X9525000Y11427968D02*
G01*
X9525000Y10799193D01*
X8157392Y9431581D01*
X8157392Y8659368D01*
X767079Y12792989D02*
G01*
X523570Y12792989D01*
X285422Y12554838D01*
X285422Y11960097D01*
X365125Y11880392D01*
X3429000Y11827967D02*
G01*
X3429000Y11884380D01*
X2519324Y12794056D01*
X2423342Y12794056D01*
X3683000Y11827967D02*
G01*
X3683000Y11997105D01*
X3421608Y12258497D01*
X3937000Y11827967D02*
G01*
X3937000Y12059947D01*
X2134008Y13862938D01*
X2134008Y15517975D01*
X2388008Y15517975D02*
G01*
X2388008Y15331059D01*
X4191000Y13528062D01*
X4191000Y11827967D01*
X2286000Y8379968D02*
G01*
X1317043Y9348924D01*
X1317043Y9645093D01*
X1087120Y9875014D01*
X9652000Y15491968D02*
G01*
X9236732Y15491968D01*
X5056583Y11311813D01*
X5056583Y10034470D01*
X4897114Y9875014D01*
X3627114Y9875014D02*
G01*
X3852031Y9650092D01*
X6475684Y9650092D01*
X7869509Y8256267D01*
X9337067Y8256267D01*
X9791700Y8710907D01*
X9791700Y9688068D01*
X4166008Y15517975D02*
G01*
X4166008Y15604693D01*
X4315792Y15754477D01*
X5032425Y15754477D01*
X5207657Y15579242D01*
X5207657Y11779785D01*
X4554377Y11126497D01*
X4554377Y11087102D01*
X4287997Y10820730D01*
X3848943Y10820730D01*
X3683000Y10986668D01*
X3683000Y11027968D01*
X8955831Y8659368D02*
G01*
X8726164Y8429701D01*
X7953834Y8429701D01*
X7533406Y8850121D01*
X7533406Y12297006D01*
X8696375Y13459968D01*
X8890000Y13459968D01*
X9173392Y8659368D02*
G01*
X8955831Y8659368D01*
X6887392Y8659368D02*
G01*
X6669831Y8659368D01*
X1143000Y11027968D02*
G01*
X1143000Y10973384D01*
X2032000Y10084384D01*
X2032000Y9427184D01*
X2762981Y8696197D01*
X5117282Y8696197D01*
X5372732Y8440752D01*
X6451216Y8440752D01*
X6669831Y8659368D01*
X1087120Y9424921D02*
G01*
X1087120Y9541436D01*
X417370Y10211180D01*
X417370Y11642496D01*
X570278Y11795406D01*
X570278Y11840029D01*
X972238Y12241989D01*
X972238Y12877975D01*
X874674Y12975539D01*
X874674Y15665853D01*
X958570Y15749750D01*
X1277744Y15749750D01*
X1372008Y15655493D01*
X1372008Y15517975D01*
X2504925Y9572726D02*
G01*
X2588257Y9656063D01*
X2588257Y10482729D01*
X2413000Y10657992D01*
X2413000Y11027968D01*
X2504925Y9572726D02*
G01*
X2357114Y9424921D01*
X3627114Y9424921D02*
G01*
X3403191Y9200997D01*
X2876649Y9200997D01*
X2504925Y9572726D01*
X3937000Y11027968D02*
G01*
X3937000Y11175593D01*
X4420008Y11658602D01*
X4420008Y15517975D01*
X7323658Y9978897D02*
G01*
X7323658Y12185192D01*
D11*
G01*
X8763000Y3427984D03*
D12*
G01*
X9017000Y3427984D03*
G01*
X9271000Y3427984D03*
G01*
X9525000Y3427984D03*
D13*
G01*
X5588000Y3557676D03*
G01*
X5588000Y3069691D03*
D14*
G01*
X889000Y3027984D03*
D15*
G01*
X1143000Y3027984D03*
G01*
X1397000Y3027984D03*
G01*
X1651000Y3027984D03*
G01*
X1905000Y3027984D03*
G01*
X2159000Y3027984D03*
G01*
X2413000Y3027984D03*
G01*
X2667000Y3027984D03*
G01*
X2921000Y3027984D03*
G01*
X3175000Y3027984D03*
G01*
X3429000Y3027984D03*
G01*
X3683000Y3027984D03*
G01*
X3937000Y3027984D03*
G01*
X4191000Y3027984D03*
G01*
X889000Y3827983D03*
G01*
X1143000Y3827983D03*
G01*
X1397000Y3827983D03*
G01*
X1651000Y3827983D03*
G01*
X1905000Y3827983D03*
G01*
X2159000Y3827983D03*
G01*
X2413000Y3827983D03*
G01*
X2667000Y3827983D03*
G01*
X2921000Y3827983D03*
G01*
X3175000Y3827983D03*
G01*
X3429000Y3827983D03*
G01*
X3683000Y3827983D03*
G01*
X3937000Y3827983D03*
G01*
X4191000Y3827983D03*
D16*
G01*
X7759700Y1688084D03*
G01*
X9791700Y1688084D03*
G01*
X254000Y379984D03*
G01*
X2286000Y379984D03*
G01*
X2794000Y379984D03*
G01*
X4826000Y379984D03*
G01*
X9652000Y5459984D03*
G01*
X9652000Y7491984D03*
G01*
X8890000Y5459984D03*
G01*
X8890000Y7491984D03*
G01*
X7759700Y2450084D03*
G01*
X9791700Y2450084D03*
D17*
G01*
X4445000Y2411984D03*
G01*
X4699000Y2411984D03*
G01*
X635000Y2411984D03*
G01*
X889000Y2411984D03*
D18*
G01*
X4928006Y7517993D03*
G01*
X4674006Y7517993D03*
G01*
X4420006Y7517993D03*
G01*
X4166006Y7517993D03*
G01*
X3912006Y7517993D03*
G01*
X3658006Y7517993D03*
G01*
X3404006Y7517993D03*
G01*
X3150006Y7517993D03*
G01*
X2896006Y7517993D03*
G01*
X2642006Y7517993D03*
G01*
X2388006Y7517993D03*
G01*
X2134006Y7517993D03*
G01*
X1880006Y7517993D03*
G01*
X1626006Y7517993D03*
G01*
X1372006Y7517993D03*
D19*
G01*
X1118006Y7517993D03*
D20*
G01*
X567994Y7517993D03*
G01*
X567994Y4417974D03*
G01*
X8068005Y7517993D03*
G01*
X8068005Y4417974D03*
D21*
G01*
X4246879Y1875028D03*
G01*
X4246879Y1424939D03*
G01*
X4897120Y1875028D03*
G01*
X4897120Y1424939D03*
G01*
X2976879Y1875028D03*
G01*
X2976879Y1424939D03*
G01*
X3627120Y1875028D03*
G01*
X3627120Y1424939D03*
G01*
X1706879Y1875028D03*
G01*
X1706879Y1424939D03*
G01*
X2357120Y1875028D03*
G01*
X2357120Y1424939D03*
G01*
X436879Y1875028D03*
G01*
X436879Y1424939D03*
G01*
X1087120Y1875028D03*
G01*
X1087120Y1424939D03*
D22*
G01*
X9173387Y659384D03*
D23*
G01*
X9423400Y659384D03*
D22*
G01*
X6887387Y659384D03*
D23*
G01*
X7137400Y659384D03*
D22*
G01*
X8157387Y659384D03*
D23*
G01*
X8407400Y659384D03*
D22*
G01*
X5871387Y659384D03*
D23*
G01*
X6121400Y659384D03*
D11*
G01*
X8763000Y11427968D03*
D12*
G01*
X9017000Y11427968D03*
G01*
X9271000Y11427968D03*
G01*
X9525000Y11427968D03*
D13*
G01*
X5588000Y11557660D03*
G01*
X5588000Y11069675D03*
D14*
G01*
X889000Y11027968D03*
D15*
G01*
X1143000Y11027968D03*
G01*
X1397000Y11027968D03*
G01*
X1651000Y11027968D03*
G01*
X1905000Y11027968D03*
G01*
X2159000Y11027968D03*
G01*
X2413000Y11027968D03*
G01*
X2667000Y11027968D03*
G01*
X2921000Y11027968D03*
G01*
X3175000Y11027968D03*
G01*
X3429000Y11027968D03*
G01*
X3683000Y11027968D03*
G01*
X3937000Y11027968D03*
G01*
X4191000Y11027968D03*
G01*
X889000Y11827967D03*
G01*
X1143000Y11827967D03*
G01*
X1397000Y11827967D03*
G01*
X1651000Y11827967D03*
G01*
X1905000Y11827967D03*
G01*
X2159000Y11827967D03*
G01*
X2413000Y11827967D03*
G01*
X2667000Y11827967D03*
G01*
X2921000Y11827967D03*
G01*
X3175000Y11827967D03*
G01*
X3429000Y11827967D03*
G01*
X3683000Y11827967D03*
G01*
X3937000Y11827967D03*
G01*
X4191000Y11827967D03*
D16*
G01*
X7759700Y9688068D03*
G01*
X9791700Y9688068D03*
G01*
X254000Y8379968D03*
G01*
X2286000Y8379968D03*
G01*
X2794000Y8379968D03*
G01*
X4826000Y8379968D03*
G01*
X9652000Y13459968D03*
G01*
X9652000Y15491968D03*
G01*
X8890000Y13459968D03*
G01*
X8890000Y15491968D03*
G01*
X7759700Y10450068D03*
G01*
X9791700Y10450068D03*
D17*
G01*
X4445000Y10411968D03*
G01*
X4699000Y10411968D03*
G01*
X635000Y10411968D03*
G01*
X889000Y10411968D03*
D18*
G01*
X4928006Y15517977D03*
G01*
X4674006Y15517977D03*
G01*
X4420006Y15517977D03*
G01*
X4166006Y15517977D03*
G01*
X3912006Y15517977D03*
G01*
X3658006Y15517977D03*
G01*
X3404006Y15517977D03*
G01*
X3150006Y15517977D03*
G01*
X2896006Y15517977D03*
G01*
X2642006Y15517977D03*
G01*
X2388006Y15517977D03*
G01*
X2134006Y15517977D03*
G01*
X1880006Y15517977D03*
G01*
X1626006Y15517977D03*
G01*
X1372006Y15517977D03*
D19*
G01*
X1118006Y15517977D03*
D20*
G01*
X567994Y15517977D03*
G01*
X567994Y12417958D03*
G01*
X8068005Y15517977D03*
G01*
X8068005Y12417958D03*
D21*
G01*
X4246879Y9875012D03*
G01*
X4246879Y9424924D03*
G01*
X4897120Y9875012D03*
G01*
X4897120Y9424924D03*
G01*
X2976879Y9875012D03*
G01*
X2976879Y9424924D03*
G01*
X3627120Y9875012D03*
G01*
X3627120Y9424924D03*
G01*
X1706879Y9875012D03*
G01*
X1706879Y9424924D03*
G01*
X2357120Y9875012D03*
G01*
X2357120Y9424924D03*
G01*
X436879Y9875012D03*
G01*
X436879Y9424924D03*
G01*
X1087120Y9875012D03*
G01*
X1087120Y9424924D03*
D22*
G01*
X9173387Y8659368D03*
D23*
G01*
X9423400Y8659368D03*
D22*
G01*
X6887387Y8659368D03*
D23*
G01*
X7137400Y8659368D03*
D22*
G01*
X8157387Y8659368D03*
D23*
G01*
X8407400Y8659368D03*
D22*
G01*
X5871387Y8659368D03*
D23*
G01*
X6121400Y8659368D03*
D24*
G01*
X3421608Y4258513D03*
G01*
X7323658Y4185208D03*
G01*
X7323658Y1978913D03*
G01*
X2423337Y4794072D03*
G01*
X767079Y4793005D03*
G01*
X365125Y3880408D03*
G01*
X4990058Y5389371D03*
G01*
X7741081Y932586D03*
G01*
X7567371Y5161127D03*
G01*
X4734407Y5959246D03*
G01*
X5261736Y2189708D03*
G01*
X8226323Y5472709D03*
G01*
X4759528Y3041548D03*
G01*
X4060672Y3589477D03*
G01*
X3421608Y12258497D03*
G01*
X7323658Y12185192D03*
G01*
X7323658Y9978897D03*
G01*
X2423337Y12794056D03*
G01*
X767079Y12792989D03*
G01*
X365125Y11880392D03*
G01*
X4990058Y13389355D03*
G01*
X7741081Y8932570D03*
G01*
X7567371Y13161111D03*
G01*
X4734407Y13959230D03*
G01*
X5261736Y10189692D03*
G01*
X8226323Y13472693D03*
G01*
X4759528Y11041532D03*
G01*
X4060672Y11589461D03*
M02*
