G04 Layer: TopSolderMaskLayer*
G04 EasyEDA v6.5.22, 2023-01-28 18:44:11*
G04 Gerber Generator version 0.2*
G04 Scale: 100 percent, Rotated: No, Reflected: No *
G04 Dimensions in millimeters *
G04 leading zeros omitted , absolute positions ,4 integer and 5 decimal *
%FSLAX45Y45*%
%MOMM*%

%AMMACRO1*1,1,$1,$2,$3*1,1,$1,$4,$5*1,1,$1,0-$2,0-$3*1,1,$1,0-$4,0-$5*20,1,$1,$2,$3,$4,$5,0*20,1,$1,$4,$5,0-$2,0-$3,0*20,1,$1,0-$2,0-$3,0-$4,0-$5,0*20,1,$1,0-$4,0-$5,$2,$3,0*4,1,4,$2,$3,$4,$5,0-$2,0-$3,0-$4,0-$5,$2,$3,0*%
%ADD10MACRO1,0.1016X0.6477X-0.6477X-0.6477X-0.6477*%
%ADD11C,1.3970*%
%ADD12C,1.4000*%
%ADD13MACRO1,0.1016X-0.75X-0.75X-0.75X0.75*%
%ADD14C,1.6016*%
%ADD15C,1.9812*%
%ADD16C,1.7526*%
%ADD17C,2.1336*%
%ADD18MACRO1,0.1016X-1.016X1.016X1.016X1.016*%
%ADD19C,3.1496*%
%ADD20C,1.9016*%
%ADD21MACRO1,0.2032X-0.875X0.875X0.875X0.875*%
%ADD22C,1.9532*%

%LPD*%
D10*
G01*
X8763000Y3427984D03*
D11*
G01*
X9017000Y3427984D03*
G01*
X9271000Y3427984D03*
G01*
X9525000Y3427984D03*
D12*
G01*
X5588000Y3557676D03*
G01*
X5588000Y3069691D03*
D13*
G01*
X889000Y3027984D03*
D14*
G01*
X1143000Y3027984D03*
G01*
X1397000Y3027984D03*
G01*
X1651000Y3027984D03*
G01*
X1905000Y3027984D03*
G01*
X2159000Y3027984D03*
G01*
X2413000Y3027984D03*
G01*
X2667000Y3027984D03*
G01*
X2921000Y3027984D03*
G01*
X3175000Y3027984D03*
G01*
X3429000Y3027984D03*
G01*
X3683000Y3027984D03*
G01*
X3937000Y3027984D03*
G01*
X4191000Y3027984D03*
G01*
X889000Y3827983D03*
G01*
X1143000Y3827983D03*
G01*
X1397000Y3827983D03*
G01*
X1651000Y3827983D03*
G01*
X1905000Y3827983D03*
G01*
X2159000Y3827983D03*
G01*
X2413000Y3827983D03*
G01*
X2667000Y3827983D03*
G01*
X2921000Y3827983D03*
G01*
X3175000Y3827983D03*
G01*
X3429000Y3827983D03*
G01*
X3683000Y3827983D03*
G01*
X3937000Y3827983D03*
G01*
X4191000Y3827983D03*
D15*
G01*
X7759700Y1688084D03*
G01*
X9791700Y1688084D03*
G01*
X254000Y379984D03*
G01*
X2286000Y379984D03*
G01*
X2794000Y379984D03*
G01*
X4826000Y379984D03*
G01*
X9652000Y5459984D03*
G01*
X9652000Y7491984D03*
G01*
X8890000Y5459984D03*
G01*
X8890000Y7491984D03*
G01*
X7759700Y2450084D03*
G01*
X9791700Y2450084D03*
D16*
G01*
X4445000Y2411984D03*
G01*
X4699000Y2411984D03*
G01*
X635000Y2411984D03*
G01*
X889000Y2411984D03*
D17*
G01*
X4928006Y7517993D03*
G01*
X4674006Y7517993D03*
G01*
X4420006Y7517993D03*
G01*
X4166006Y7517993D03*
G01*
X3912006Y7517993D03*
G01*
X3658006Y7517993D03*
G01*
X3404006Y7517993D03*
G01*
X3150006Y7517993D03*
G01*
X2896006Y7517993D03*
G01*
X2642006Y7517993D03*
G01*
X2388006Y7517993D03*
G01*
X2134006Y7517993D03*
G01*
X1880006Y7517993D03*
G01*
X1626006Y7517993D03*
G01*
X1372006Y7517993D03*
D18*
G01*
X1117998Y7517983D03*
D19*
G01*
X567994Y7517993D03*
G01*
X567994Y4417974D03*
G01*
X8068005Y7517993D03*
G01*
X8068005Y4417974D03*
D20*
G01*
X4246879Y1875028D03*
G01*
X4246879Y1424939D03*
G01*
X4897120Y1875028D03*
G01*
X4897120Y1424939D03*
G01*
X2976879Y1875028D03*
G01*
X2976879Y1424939D03*
G01*
X3627120Y1875028D03*
G01*
X3627120Y1424939D03*
G01*
X1706879Y1875028D03*
G01*
X1706879Y1424939D03*
G01*
X2357120Y1875028D03*
G01*
X2357120Y1424939D03*
G01*
X436879Y1875028D03*
G01*
X436879Y1424939D03*
G01*
X1087120Y1875028D03*
G01*
X1087120Y1424939D03*
D21*
G01*
X9173387Y659383D03*
D22*
G01*
X9423400Y659384D03*
D21*
G01*
X6887387Y659383D03*
D22*
G01*
X7137400Y659384D03*
D21*
G01*
X8157387Y659383D03*
D22*
G01*
X8407400Y659384D03*
D21*
G01*
X5871387Y659383D03*
D22*
G01*
X6121400Y659384D03*
D10*
G01*
X8763000Y11427967D03*
D11*
G01*
X9017000Y11427968D03*
G01*
X9271000Y11427968D03*
G01*
X9525000Y11427968D03*
D12*
G01*
X5588000Y11557660D03*
G01*
X5588000Y11069675D03*
D13*
G01*
X889000Y11027968D03*
D14*
G01*
X1143000Y11027968D03*
G01*
X1397000Y11027968D03*
G01*
X1651000Y11027968D03*
G01*
X1905000Y11027968D03*
G01*
X2159000Y11027968D03*
G01*
X2413000Y11027968D03*
G01*
X2667000Y11027968D03*
G01*
X2921000Y11027968D03*
G01*
X3175000Y11027968D03*
G01*
X3429000Y11027968D03*
G01*
X3683000Y11027968D03*
G01*
X3937000Y11027968D03*
G01*
X4191000Y11027968D03*
G01*
X889000Y11827967D03*
G01*
X1143000Y11827967D03*
G01*
X1397000Y11827967D03*
G01*
X1651000Y11827967D03*
G01*
X1905000Y11827967D03*
G01*
X2159000Y11827967D03*
G01*
X2413000Y11827967D03*
G01*
X2667000Y11827967D03*
G01*
X2921000Y11827967D03*
G01*
X3175000Y11827967D03*
G01*
X3429000Y11827967D03*
G01*
X3683000Y11827967D03*
G01*
X3937000Y11827967D03*
G01*
X4191000Y11827967D03*
D15*
G01*
X7759700Y9688068D03*
G01*
X9791700Y9688068D03*
G01*
X254000Y8379968D03*
G01*
X2286000Y8379968D03*
G01*
X2794000Y8379968D03*
G01*
X4826000Y8379968D03*
G01*
X9652000Y13459968D03*
G01*
X9652000Y15491968D03*
G01*
X8890000Y13459968D03*
G01*
X8890000Y15491968D03*
G01*
X7759700Y10450068D03*
G01*
X9791700Y10450068D03*
D16*
G01*
X4445000Y10411968D03*
G01*
X4699000Y10411968D03*
G01*
X635000Y10411968D03*
G01*
X889000Y10411968D03*
D17*
G01*
X4928006Y15517977D03*
G01*
X4674006Y15517977D03*
G01*
X4420006Y15517977D03*
G01*
X4166006Y15517977D03*
G01*
X3912006Y15517977D03*
G01*
X3658006Y15517977D03*
G01*
X3404006Y15517977D03*
G01*
X3150006Y15517977D03*
G01*
X2896006Y15517977D03*
G01*
X2642006Y15517977D03*
G01*
X2388006Y15517977D03*
G01*
X2134006Y15517977D03*
G01*
X1880006Y15517977D03*
G01*
X1626006Y15517977D03*
G01*
X1372006Y15517977D03*
D18*
G01*
X1117998Y15517967D03*
D19*
G01*
X567994Y15517977D03*
G01*
X567994Y12417958D03*
G01*
X8068005Y15517977D03*
G01*
X8068005Y12417958D03*
D20*
G01*
X4246879Y9875012D03*
G01*
X4246879Y9424924D03*
G01*
X4897120Y9875012D03*
G01*
X4897120Y9424924D03*
G01*
X2976879Y9875012D03*
G01*
X2976879Y9424924D03*
G01*
X3627120Y9875012D03*
G01*
X3627120Y9424924D03*
G01*
X1706879Y9875012D03*
G01*
X1706879Y9424924D03*
G01*
X2357120Y9875012D03*
G01*
X2357120Y9424924D03*
G01*
X436879Y9875012D03*
G01*
X436879Y9424924D03*
G01*
X1087120Y9875012D03*
G01*
X1087120Y9424924D03*
D21*
G01*
X9173387Y8659367D03*
D22*
G01*
X9423400Y8659368D03*
D21*
G01*
X6887387Y8659367D03*
D22*
G01*
X7137400Y8659368D03*
D21*
G01*
X8157387Y8659367D03*
D22*
G01*
X8407400Y8659368D03*
D21*
G01*
X5871387Y8659367D03*
D22*
G01*
X6121400Y8659368D03*
M02*
