G04 Layer: BottomLayer*
G04 EasyEDA v6.5.22, 2023-01-28 18:44:11*
G04 Gerber Generator version 0.2*
G04 Scale: 100 percent, Rotated: No, Reflected: No *
G04 Dimensions in millimeters *
G04 leading zeros omitted , absolute positions ,4 integer and 5 decimal *
%FSLAX45Y45*%
%MOMM*%

%ADD10C,0.5000*%
%ADD11R,1.2954X1.2954*%
%ADD12C,1.2954*%
%ADD13C,1.3000*%
%ADD14R,1.5000X1.5000*%
%ADD15C,1.5000*%
%ADD16C,1.8796*%
%ADD17C,1.6510*%
%ADD18C,2.0320*%
%ADD19R,2.0320X2.0320*%
%ADD20C,3.0480*%
%ADD21C,1.8000*%
%ADD22R,1.7500X1.7500*%
%ADD23C,1.7500*%
%ADD24C,0.6000*%
%ADD25C,0.0125*%

%LPD*%
D10*
X9652000Y15491968D02*
G01*
X9652000Y14629894D01*
X4897114Y9875014D01*
X7137400Y8659368D02*
G01*
X7137400Y10877781D01*
X4699000Y10411968D02*
G01*
X4928008Y10640976D01*
X4928008Y15517975D01*
X2130760Y14328571D02*
G01*
X1118008Y15341323D01*
X2392225Y11827967D02*
G01*
X2392225Y14067106D01*
X2130760Y14328571D01*
X2130760Y14328571D02*
G01*
X2690873Y14888692D01*
X889000Y10411968D02*
G01*
X738807Y10562160D01*
X738807Y11140036D01*
X1026746Y11427968D01*
X1992226Y11427968D01*
X2392225Y11827967D01*
X2392225Y11827967D02*
G01*
X2413000Y11827967D01*
X1118008Y15517975D02*
G01*
X1118008Y15341323D01*
X4699000Y10411968D02*
G01*
X4699000Y9832642D01*
X4881674Y9649968D01*
X5190690Y9649968D01*
X6121400Y8719258D01*
X6121400Y8659368D01*
X8157392Y8659368D02*
G01*
X8157392Y8821925D01*
X9525000Y11427968D02*
G01*
X9525000Y10189537D01*
X8157392Y8821925D01*
X3658008Y15517975D02*
G01*
X4346066Y14829919D01*
X4346066Y11754230D01*
X4269531Y11677700D01*
X2808734Y11677700D01*
X2159000Y11027968D01*
X8153760Y12063196D02*
G01*
X8255223Y12063196D01*
X9652000Y13459968D01*
X7759700Y9688068D02*
G01*
X7589192Y9858575D01*
X7589192Y11498630D01*
X8153760Y12063196D01*
X2921000Y11027968D02*
G01*
X3450691Y11557660D01*
X4138960Y11557660D01*
X3429000Y11027968D02*
G01*
X3429000Y10755581D01*
X5148150Y10755581D02*
G01*
X5148150Y15559963D01*
X5006007Y15702099D01*
X4096133Y15702099D01*
X3912008Y15517975D01*
X4420008Y15517975D02*
G01*
X4554189Y15383789D01*
X4554189Y11157206D01*
X4267956Y10870971D01*
X4094002Y10870971D01*
X3937000Y11027968D01*
X1087120Y9424921D02*
G01*
X1087120Y9578362D01*
X473354Y10192130D01*
X473354Y11854558D01*
X903808Y12285012D01*
X903808Y15628010D01*
X970607Y15694814D01*
X1261468Y15694814D01*
X1372008Y15584271D01*
X1372008Y15517975D01*
X2529893Y9597692D02*
G01*
X2529893Y10911075D01*
X2413000Y11027968D01*
X2357114Y9424921D02*
G01*
X2529893Y9597692D01*
X3627114Y9424921D02*
G01*
X3454349Y9597692D01*
X2529893Y9597692D01*
X8763000Y11427968D02*
G01*
X8623175Y11427968D01*
X8623175Y11427968D02*
G01*
X8623175Y11313543D01*
X7759700Y10450068D01*
X4166008Y15517975D02*
G01*
X4446216Y15237762D01*
X4446216Y11695300D01*
X4153682Y11402773D01*
X4057799Y11402773D01*
X3683000Y11027968D01*
X4699607Y14087602D02*
G01*
X4699607Y11027968D01*
X3937000Y11827967D02*
G01*
X3937000Y13791308D01*
X2734457Y14993846D01*
X2658132Y14993846D01*
X2134008Y15517975D01*
X2286000Y8379968D02*
G01*
X1372034Y9293933D01*
X1372034Y9590102D01*
X1087120Y9875014D01*
X8890000Y13459968D02*
G01*
X8890000Y12916075D01*
X8142274Y12168350D01*
X8110189Y12168350D01*
X7477584Y11535737D01*
X7477584Y9038333D01*
X8026151Y8489772D01*
X8841234Y8489772D01*
X9010822Y8659368D01*
X9173392Y8659368D02*
G01*
X9010822Y8659368D01*
X4191000Y11827967D02*
G01*
X4191000Y13714984D01*
X2388008Y15517975D01*
X9423400Y8659368D02*
G01*
X9423400Y9558985D01*
X9640216Y9775802D01*
X9640216Y10211056D01*
X5871392Y8659368D02*
G01*
X2887068Y8659368D01*
X1905000Y9641436D01*
X1905000Y11027968D01*
X4445000Y10411968D02*
G01*
X4804790Y10771759D01*
X4804790Y12298426D01*
X3175000Y11827967D02*
G01*
X3175000Y12298426D01*
X9652000Y7491984D02*
G01*
X9652000Y6629910D01*
X4897114Y1875030D01*
X7137400Y659384D02*
G01*
X7137400Y2877797D01*
X4699000Y2411984D02*
G01*
X4928008Y2640992D01*
X4928008Y7517991D01*
X2130760Y6328587D02*
G01*
X1118008Y7341339D01*
X2392225Y3827983D02*
G01*
X2392225Y6067122D01*
X2130760Y6328587D01*
X2130760Y6328587D02*
G01*
X2690873Y6888708D01*
X889000Y2411984D02*
G01*
X738807Y2562176D01*
X738807Y3140052D01*
X1026746Y3427984D01*
X1992226Y3427984D01*
X2392225Y3827983D01*
X2392225Y3827983D02*
G01*
X2413000Y3827983D01*
X1118008Y7517991D02*
G01*
X1118008Y7341339D01*
X4699000Y2411984D02*
G01*
X4699000Y1832658D01*
X4881674Y1649984D01*
X5190690Y1649984D01*
X6121400Y719274D01*
X6121400Y659384D01*
X8157392Y659384D02*
G01*
X8157392Y821941D01*
X9525000Y3427984D02*
G01*
X9525000Y2189553D01*
X8157392Y821941D01*
X3658008Y7517991D02*
G01*
X4346066Y6829935D01*
X4346066Y3754246D01*
X4269531Y3677716D01*
X2808734Y3677716D01*
X2159000Y3027984D01*
X8153760Y4063212D02*
G01*
X8255223Y4063212D01*
X9652000Y5459984D01*
X7759700Y1688084D02*
G01*
X7589192Y1858591D01*
X7589192Y3498646D01*
X8153760Y4063212D01*
X2921000Y3027984D02*
G01*
X3450691Y3557676D01*
X4138960Y3557676D01*
X3429000Y3027984D02*
G01*
X3429000Y2755597D01*
X5148150Y2755597D02*
G01*
X5148150Y7559979D01*
X5006007Y7702115D01*
X4096133Y7702115D01*
X3912008Y7517991D01*
X4420008Y7517991D02*
G01*
X4554189Y7383805D01*
X4554189Y3157222D01*
X4267956Y2870987D01*
X4094002Y2870987D01*
X3937000Y3027984D01*
X1087120Y1424937D02*
G01*
X1087120Y1578378D01*
X473354Y2192146D01*
X473354Y3854574D01*
X903808Y4285028D01*
X903808Y7628026D01*
X970607Y7694830D01*
X1261468Y7694830D01*
X1372008Y7584287D01*
X1372008Y7517991D01*
X2529893Y1597708D02*
G01*
X2529893Y2911091D01*
X2413000Y3027984D01*
X2357114Y1424937D02*
G01*
X2529893Y1597708D01*
X3627114Y1424937D02*
G01*
X3454349Y1597708D01*
X2529893Y1597708D01*
X8763000Y3427984D02*
G01*
X8623175Y3427984D01*
X8623175Y3427984D02*
G01*
X8623175Y3313559D01*
X7759700Y2450084D01*
X4166008Y7517991D02*
G01*
X4446216Y7237778D01*
X4446216Y3695316D01*
X4153682Y3402789D01*
X4057799Y3402789D01*
X3683000Y3027984D01*
X4699607Y6087618D02*
G01*
X4699607Y3027984D01*
X3937000Y3827983D02*
G01*
X3937000Y5791324D01*
X2734457Y6993862D01*
X2658132Y6993862D01*
X2134008Y7517991D01*
X2286000Y379984D02*
G01*
X1372034Y1293949D01*
X1372034Y1590118D01*
X1087120Y1875030D01*
X8890000Y5459984D02*
G01*
X8890000Y4916091D01*
X8142274Y4168366D01*
X8110189Y4168366D01*
X7477584Y3535753D01*
X7477584Y1038349D01*
X8026151Y489788D01*
X8841234Y489788D01*
X9010822Y659384D01*
X9173392Y659384D02*
G01*
X9010822Y659384D01*
X4191000Y3827983D02*
G01*
X4191000Y5715000D01*
X2388008Y7517991D01*
X9423400Y659384D02*
G01*
X9423400Y1559001D01*
X9640216Y1775818D01*
X9640216Y2211072D01*
X5871392Y659384D02*
G01*
X2887068Y659384D01*
X1905000Y1641452D01*
X1905000Y3027984D01*
X4445000Y2411984D02*
G01*
X4804790Y2771775D01*
X4804790Y4298442D01*
X3175000Y3827983D02*
G01*
X3175000Y4298442D01*
D11*
G01*
X8763000Y3427984D03*
D12*
G01*
X9017000Y3427984D03*
G01*
X9271000Y3427984D03*
G01*
X9525000Y3427984D03*
D13*
G01*
X5588000Y3557676D03*
G01*
X5588000Y3069691D03*
D14*
G01*
X889000Y3027984D03*
D15*
G01*
X1143000Y3027984D03*
G01*
X1397000Y3027984D03*
G01*
X1651000Y3027984D03*
G01*
X1905000Y3027984D03*
G01*
X2159000Y3027984D03*
G01*
X2413000Y3027984D03*
G01*
X2667000Y3027984D03*
G01*
X2921000Y3027984D03*
G01*
X3175000Y3027984D03*
G01*
X3429000Y3027984D03*
G01*
X3683000Y3027984D03*
G01*
X3937000Y3027984D03*
G01*
X4191000Y3027984D03*
G01*
X889000Y3827983D03*
G01*
X1143000Y3827983D03*
G01*
X1397000Y3827983D03*
G01*
X1651000Y3827983D03*
G01*
X1905000Y3827983D03*
G01*
X2159000Y3827983D03*
G01*
X2413000Y3827983D03*
G01*
X2667000Y3827983D03*
G01*
X2921000Y3827983D03*
G01*
X3175000Y3827983D03*
G01*
X3429000Y3827983D03*
G01*
X3683000Y3827983D03*
G01*
X3937000Y3827983D03*
G01*
X4191000Y3827983D03*
D16*
G01*
X7759700Y1688084D03*
G01*
X9791700Y1688084D03*
G01*
X254000Y379984D03*
G01*
X2286000Y379984D03*
G01*
X2794000Y379984D03*
G01*
X4826000Y379984D03*
G01*
X9652000Y5459984D03*
G01*
X9652000Y7491984D03*
G01*
X8890000Y5459984D03*
G01*
X8890000Y7491984D03*
G01*
X7759700Y2450084D03*
G01*
X9791700Y2450084D03*
D17*
G01*
X4445000Y2411984D03*
G01*
X4699000Y2411984D03*
G01*
X635000Y2411984D03*
G01*
X889000Y2411984D03*
D18*
G01*
X4928006Y7517993D03*
G01*
X4674006Y7517993D03*
G01*
X4420006Y7517993D03*
G01*
X4166006Y7517993D03*
G01*
X3912006Y7517993D03*
G01*
X3658006Y7517993D03*
G01*
X3404006Y7517993D03*
G01*
X3150006Y7517993D03*
G01*
X2896006Y7517993D03*
G01*
X2642006Y7517993D03*
G01*
X2388006Y7517993D03*
G01*
X2134006Y7517993D03*
G01*
X1880006Y7517993D03*
G01*
X1626006Y7517993D03*
G01*
X1372006Y7517993D03*
D19*
G01*
X1118006Y7517993D03*
D20*
G01*
X567994Y7517993D03*
G01*
X567994Y4417974D03*
G01*
X8068005Y7517993D03*
G01*
X8068005Y4417974D03*
D21*
G01*
X4246879Y1875028D03*
G01*
X4246879Y1424939D03*
G01*
X4897120Y1875028D03*
G01*
X4897120Y1424939D03*
G01*
X2976879Y1875028D03*
G01*
X2976879Y1424939D03*
G01*
X3627120Y1875028D03*
G01*
X3627120Y1424939D03*
G01*
X1706879Y1875028D03*
G01*
X1706879Y1424939D03*
G01*
X2357120Y1875028D03*
G01*
X2357120Y1424939D03*
G01*
X436879Y1875028D03*
G01*
X436879Y1424939D03*
G01*
X1087120Y1875028D03*
G01*
X1087120Y1424939D03*
D22*
G01*
X9173387Y659384D03*
D23*
G01*
X9423400Y659384D03*
D22*
G01*
X6887387Y659384D03*
D23*
G01*
X7137400Y659384D03*
D22*
G01*
X8157387Y659384D03*
D23*
G01*
X8407400Y659384D03*
D22*
G01*
X5871387Y659384D03*
D23*
G01*
X6121400Y659384D03*
D11*
G01*
X8763000Y11427968D03*
D12*
G01*
X9017000Y11427968D03*
G01*
X9271000Y11427968D03*
G01*
X9525000Y11427968D03*
D13*
G01*
X5588000Y11557660D03*
G01*
X5588000Y11069675D03*
D14*
G01*
X889000Y11027968D03*
D15*
G01*
X1143000Y11027968D03*
G01*
X1397000Y11027968D03*
G01*
X1651000Y11027968D03*
G01*
X1905000Y11027968D03*
G01*
X2159000Y11027968D03*
G01*
X2413000Y11027968D03*
G01*
X2667000Y11027968D03*
G01*
X2921000Y11027968D03*
G01*
X3175000Y11027968D03*
G01*
X3429000Y11027968D03*
G01*
X3683000Y11027968D03*
G01*
X3937000Y11027968D03*
G01*
X4191000Y11027968D03*
G01*
X889000Y11827967D03*
G01*
X1143000Y11827967D03*
G01*
X1397000Y11827967D03*
G01*
X1651000Y11827967D03*
G01*
X1905000Y11827967D03*
G01*
X2159000Y11827967D03*
G01*
X2413000Y11827967D03*
G01*
X2667000Y11827967D03*
G01*
X2921000Y11827967D03*
G01*
X3175000Y11827967D03*
G01*
X3429000Y11827967D03*
G01*
X3683000Y11827967D03*
G01*
X3937000Y11827967D03*
G01*
X4191000Y11827967D03*
D16*
G01*
X7759700Y9688068D03*
G01*
X9791700Y9688068D03*
G01*
X254000Y8379968D03*
G01*
X2286000Y8379968D03*
G01*
X2794000Y8379968D03*
G01*
X4826000Y8379968D03*
G01*
X9652000Y13459968D03*
G01*
X9652000Y15491968D03*
G01*
X8890000Y13459968D03*
G01*
X8890000Y15491968D03*
G01*
X7759700Y10450068D03*
G01*
X9791700Y10450068D03*
D17*
G01*
X4445000Y10411968D03*
G01*
X4699000Y10411968D03*
G01*
X635000Y10411968D03*
G01*
X889000Y10411968D03*
D18*
G01*
X4928006Y15517977D03*
G01*
X4674006Y15517977D03*
G01*
X4420006Y15517977D03*
G01*
X4166006Y15517977D03*
G01*
X3912006Y15517977D03*
G01*
X3658006Y15517977D03*
G01*
X3404006Y15517977D03*
G01*
X3150006Y15517977D03*
G01*
X2896006Y15517977D03*
G01*
X2642006Y15517977D03*
G01*
X2388006Y15517977D03*
G01*
X2134006Y15517977D03*
G01*
X1880006Y15517977D03*
G01*
X1626006Y15517977D03*
G01*
X1372006Y15517977D03*
D19*
G01*
X1118006Y15517977D03*
D20*
G01*
X567994Y15517977D03*
G01*
X567994Y12417958D03*
G01*
X8068005Y15517977D03*
G01*
X8068005Y12417958D03*
D21*
G01*
X4246879Y9875012D03*
G01*
X4246879Y9424924D03*
G01*
X4897120Y9875012D03*
G01*
X4897120Y9424924D03*
G01*
X2976879Y9875012D03*
G01*
X2976879Y9424924D03*
G01*
X3627120Y9875012D03*
G01*
X3627120Y9424924D03*
G01*
X1706879Y9875012D03*
G01*
X1706879Y9424924D03*
G01*
X2357120Y9875012D03*
G01*
X2357120Y9424924D03*
G01*
X436879Y9875012D03*
G01*
X436879Y9424924D03*
G01*
X1087120Y9875012D03*
G01*
X1087120Y9424924D03*
D22*
G01*
X9173387Y8659368D03*
D23*
G01*
X9423400Y8659368D03*
D22*
G01*
X6887387Y8659368D03*
D23*
G01*
X7137400Y8659368D03*
D22*
G01*
X8157387Y8659368D03*
D23*
G01*
X8407400Y8659368D03*
D22*
G01*
X5871387Y8659368D03*
D23*
G01*
X6121400Y8659368D03*
D24*
G01*
X3175000Y4298442D03*
G01*
X4804790Y4298442D03*
G01*
X7137400Y2877794D03*
G01*
X9640214Y2211070D03*
G01*
X4699609Y3027984D03*
G01*
X4699609Y6087618D03*
G01*
X3429000Y2755595D03*
G01*
X5148148Y2755595D03*
G01*
X4138955Y3557676D03*
G01*
X8153755Y4063212D03*
G01*
X2690875Y6888708D03*
G01*
X3175000Y12298426D03*
G01*
X4804790Y12298426D03*
G01*
X7137400Y10877778D03*
G01*
X9640214Y10211054D03*
G01*
X4699609Y11027968D03*
G01*
X4699609Y14087602D03*
G01*
X3429000Y10755579D03*
G01*
X5148148Y10755579D03*
G01*
X4138955Y11557660D03*
G01*
X8153755Y12063196D03*
G01*
X2690875Y14888692D03*
M02*
