G04 Layer: TopSolderMaskLayer*
G04 EasyEDA v6.5.22, 2023-01-28 12:43:13*
G04 Gerber Generator version 0.2*
G04 Scale: 100 percent, Rotated: No, Reflected: No *
G04 Dimensions in millimeters *
G04 leading zeros omitted , absolute positions ,4 integer and 5 decimal *
%FSLAX45Y45*%
%MOMM*%

%AMMACRO1*1,1,$1,$2,$3*1,1,$1,$4,$5*1,1,$1,0-$2,0-$3*1,1,$1,0-$4,0-$5*20,1,$1,$2,$3,$4,$5,0*20,1,$1,$4,$5,0-$2,0-$3,0*20,1,$1,0-$2,0-$3,0-$4,0-$5,0*20,1,$1,0-$4,0-$5,$2,$3,0*4,1,4,$2,$3,$4,$5,0-$2,0-$3,0-$4,0-$5,$2,$3,0*%
%ADD10MACRO1,0.1016X0.6477X-0.6477X-0.6477X-0.6477*%
%ADD11C,1.3970*%
%ADD12C,1.4000*%
%ADD13MACRO1,0.1016X-0.75X-0.75X-0.75X0.75*%
%ADD14C,1.6016*%
%ADD15C,1.9812*%
%ADD16C,1.7526*%
%ADD17C,2.1336*%
%ADD18MACRO1,0.1016X-1.016X1.016X1.016X1.016*%
%ADD19C,3.1496*%
%ADD20C,1.9016*%
%ADD21MACRO1,0.2032X-0.875X0.875X0.875X0.875*%
%ADD22C,1.9532*%

%LPD*%
D10*
G01*
X8763000Y3549142D03*
D11*
G01*
X9017000Y3549142D03*
G01*
X9271000Y3549142D03*
G01*
X9525000Y3549142D03*
D12*
G01*
X5588000Y3678834D03*
G01*
X5588000Y3190849D03*
D13*
G01*
X889000Y3149142D03*
D14*
G01*
X1143000Y3149142D03*
G01*
X1397000Y3149142D03*
G01*
X1651000Y3149142D03*
G01*
X1905000Y3149142D03*
G01*
X2159000Y3149142D03*
G01*
X2413000Y3149142D03*
G01*
X2667000Y3149142D03*
G01*
X2921000Y3149142D03*
G01*
X3175000Y3149142D03*
G01*
X3429000Y3149142D03*
G01*
X3683000Y3149142D03*
G01*
X3937000Y3149142D03*
G01*
X4191000Y3149142D03*
G01*
X889000Y3949141D03*
G01*
X1143000Y3949141D03*
G01*
X1397000Y3949141D03*
G01*
X1651000Y3949141D03*
G01*
X1905000Y3949141D03*
G01*
X2159000Y3949141D03*
G01*
X2413000Y3949141D03*
G01*
X2667000Y3949141D03*
G01*
X2921000Y3949141D03*
G01*
X3175000Y3949141D03*
G01*
X3429000Y3949141D03*
G01*
X3683000Y3949141D03*
G01*
X3937000Y3949141D03*
G01*
X4191000Y3949141D03*
D15*
G01*
X7759700Y1809242D03*
G01*
X9791700Y1809242D03*
G01*
X254000Y501142D03*
G01*
X2286000Y501142D03*
G01*
X2794000Y501142D03*
G01*
X4826000Y501142D03*
G01*
X9652000Y5581142D03*
G01*
X9652000Y7613142D03*
G01*
X8890000Y5581142D03*
G01*
X8890000Y7613142D03*
G01*
X7759700Y2571242D03*
G01*
X9791700Y2571242D03*
D16*
G01*
X4445000Y2533142D03*
G01*
X4699000Y2533142D03*
G01*
X635000Y2533142D03*
G01*
X889000Y2533142D03*
D17*
G01*
X4928006Y7639151D03*
G01*
X4674006Y7639151D03*
G01*
X4420006Y7639151D03*
G01*
X4166006Y7639151D03*
G01*
X3912006Y7639151D03*
G01*
X3658006Y7639151D03*
G01*
X3404006Y7639151D03*
G01*
X3150006Y7639151D03*
G01*
X2896006Y7639151D03*
G01*
X2642006Y7639151D03*
G01*
X2388006Y7639151D03*
G01*
X2134006Y7639151D03*
G01*
X1880006Y7639151D03*
G01*
X1626006Y7639151D03*
G01*
X1372006Y7639151D03*
D18*
G01*
X1117998Y7639141D03*
D19*
G01*
X567994Y7639151D03*
G01*
X567994Y4539132D03*
G01*
X8068005Y7639151D03*
G01*
X8068005Y4539132D03*
D20*
G01*
X4246879Y1996186D03*
G01*
X4246879Y1546097D03*
G01*
X4897120Y1996186D03*
G01*
X4897120Y1546097D03*
G01*
X2976879Y1996186D03*
G01*
X2976879Y1546097D03*
G01*
X3627120Y1996186D03*
G01*
X3627120Y1546097D03*
G01*
X1706879Y1996186D03*
G01*
X1706879Y1546097D03*
G01*
X2357120Y1996186D03*
G01*
X2357120Y1546097D03*
G01*
X436879Y1996186D03*
G01*
X436879Y1546097D03*
G01*
X1087120Y1996186D03*
G01*
X1087120Y1546097D03*
D21*
G01*
X9173387Y780541D03*
D22*
G01*
X9423400Y780542D03*
D21*
G01*
X6887387Y780541D03*
D22*
G01*
X7137400Y780542D03*
D21*
G01*
X8157387Y780541D03*
D22*
G01*
X8407400Y780542D03*
D21*
G01*
X5871387Y780541D03*
D22*
G01*
X6121400Y780542D03*
M02*
