G04 Layer: BottomLayer*
G04 EasyEDA v6.5.22, 2023-01-28 12:43:13*
G04 Gerber Generator version 0.2*
G04 Scale: 100 percent, Rotated: No, Reflected: No *
G04 Dimensions in millimeters *
G04 leading zeros omitted , absolute positions ,4 integer and 5 decimal *
%FSLAX45Y45*%
%MOMM*%

%ADD10C,0.5000*%
%ADD11R,1.2954X1.2954*%
%ADD12C,1.2954*%
%ADD13C,1.3000*%
%ADD14R,1.5000X1.5000*%
%ADD15C,1.5000*%
%ADD16C,1.8796*%
%ADD17C,1.6510*%
%ADD18C,2.0320*%
%ADD19R,2.0320X2.0320*%
%ADD20C,3.0480*%
%ADD21C,1.8000*%
%ADD22R,1.7500X1.7500*%
%ADD23C,1.7500*%
%ADD24C,0.6000*%

%LPD*%
D10*
X9173387Y780542D02*
G01*
X9173387Y943102D01*
X9173387Y943102D02*
G01*
X8621852Y1494637D01*
X8621852Y5312994D01*
X8890000Y5581142D01*
X4897120Y1996186D02*
G01*
X9652000Y6751065D01*
X9652000Y7613142D01*
X1087120Y1996186D02*
G01*
X1406220Y1677085D01*
X1406220Y1380921D01*
X2286000Y501142D01*
X2388006Y7639151D02*
G01*
X2388006Y5752134D01*
X4191000Y3949141D01*
X2134006Y7639151D02*
G01*
X2134006Y5752134D01*
X3937000Y3949141D01*
X635000Y2533142D02*
G01*
X635000Y3155670D01*
X1219987Y3740657D01*
X3220516Y3740657D01*
X3429000Y3949141D01*
X4420006Y7639151D02*
G01*
X4420006Y6756577D01*
X4552899Y6623685D01*
X4552899Y3765042D01*
X3937000Y3149142D01*
X3683000Y3149142D02*
G01*
X3878986Y3345129D01*
X3944315Y3345129D01*
X4449775Y3850589D01*
X4449775Y6585026D01*
X4166006Y6868795D01*
X4166006Y7639151D01*
X2159000Y3149142D02*
G01*
X2159000Y2229256D01*
X3658006Y7639151D02*
G01*
X3839692Y7820837D01*
X4999507Y7820837D01*
X5108320Y7712024D01*
X5108320Y2786989D01*
X5089143Y2767812D01*
X5089143Y2462301D01*
X4856099Y2229256D01*
X2593086Y2924657D02*
G01*
X3142056Y2375687D01*
X3142056Y2243505D01*
X3614420Y1771142D01*
X4282617Y1771142D01*
X5273217Y780542D01*
X5871387Y780542D01*
X5194300Y2724251D02*
G01*
X5588000Y3117951D01*
X5588000Y3190849D01*
X8407400Y780542D02*
G01*
X8407400Y1923542D01*
X7759700Y2571242D01*
X3627120Y1546097D02*
G01*
X3458336Y1714880D01*
X2525902Y1714880D01*
X2525902Y1714880D02*
G01*
X2357120Y1546097D01*
X2413000Y3149142D02*
G01*
X2413000Y2956026D01*
X2525902Y2843123D01*
X2525902Y1714880D01*
X8763000Y3549142D02*
G01*
X8763000Y2571242D01*
X6121400Y780542D02*
G01*
X6121400Y822248D01*
X5172506Y1771142D01*
X4873218Y1771142D01*
X4699000Y1945360D01*
X4699000Y2533142D01*
X1118006Y7639151D02*
G01*
X1118006Y5244134D01*
X2413000Y3949141D01*
X8157387Y780542D02*
G01*
X8328736Y609193D01*
X9497313Y609193D01*
X9591217Y703097D01*
X9591217Y3482924D01*
X9525000Y3549142D01*
X4699000Y2533142D02*
G01*
X4928006Y2762148D01*
X4928006Y7639151D01*
X254000Y501142D02*
G01*
X254000Y3533139D01*
X829335Y4108475D01*
X1745665Y4108475D01*
X1905000Y3949141D01*
X9652000Y5581142D02*
G01*
X9482581Y5750560D01*
X8812682Y5750560D01*
X7580731Y4518609D01*
X7580731Y4296130D01*
X7580731Y4296130D02*
G01*
X7580731Y1988210D01*
X7759700Y1809242D01*
X2921000Y3149142D02*
G01*
X3073272Y2996869D01*
X4257649Y2996869D01*
X4803851Y3543071D01*
X4803851Y3970172D01*
X3912006Y7639151D02*
G01*
X3912006Y6485381D01*
X4341749Y6055639D01*
X4341749Y3884218D01*
X3960952Y3503421D01*
X3783279Y3503421D01*
X3429000Y3149142D01*
X4191000Y3149142D02*
G01*
X4653076Y3611219D01*
X4653076Y6684010D01*
X4445000Y2533142D02*
G01*
X4445000Y3023184D01*
X4819116Y3397300D01*
D11*
G01*
X8763000Y3549142D03*
D12*
G01*
X9017000Y3549142D03*
G01*
X9271000Y3549142D03*
G01*
X9525000Y3549142D03*
D13*
G01*
X5588000Y3678834D03*
G01*
X5588000Y3190849D03*
D14*
G01*
X889000Y3149142D03*
D15*
G01*
X1143000Y3149142D03*
G01*
X1397000Y3149142D03*
G01*
X1651000Y3149142D03*
G01*
X1905000Y3149142D03*
G01*
X2159000Y3149142D03*
G01*
X2413000Y3149142D03*
G01*
X2667000Y3149142D03*
G01*
X2921000Y3149142D03*
G01*
X3175000Y3149142D03*
G01*
X3429000Y3149142D03*
G01*
X3683000Y3149142D03*
G01*
X3937000Y3149142D03*
G01*
X4191000Y3149142D03*
G01*
X889000Y3949141D03*
G01*
X1143000Y3949141D03*
G01*
X1397000Y3949141D03*
G01*
X1651000Y3949141D03*
G01*
X1905000Y3949141D03*
G01*
X2159000Y3949141D03*
G01*
X2413000Y3949141D03*
G01*
X2667000Y3949141D03*
G01*
X2921000Y3949141D03*
G01*
X3175000Y3949141D03*
G01*
X3429000Y3949141D03*
G01*
X3683000Y3949141D03*
G01*
X3937000Y3949141D03*
G01*
X4191000Y3949141D03*
D16*
G01*
X7759700Y1809242D03*
G01*
X9791700Y1809242D03*
G01*
X254000Y501142D03*
G01*
X2286000Y501142D03*
G01*
X2794000Y501142D03*
G01*
X4826000Y501142D03*
G01*
X9652000Y5581142D03*
G01*
X9652000Y7613142D03*
G01*
X8890000Y5581142D03*
G01*
X8890000Y7613142D03*
G01*
X7759700Y2571242D03*
G01*
X9791700Y2571242D03*
D17*
G01*
X4445000Y2533142D03*
G01*
X4699000Y2533142D03*
G01*
X635000Y2533142D03*
G01*
X889000Y2533142D03*
D18*
G01*
X4928006Y7639151D03*
G01*
X4674006Y7639151D03*
G01*
X4420006Y7639151D03*
G01*
X4166006Y7639151D03*
G01*
X3912006Y7639151D03*
G01*
X3658006Y7639151D03*
G01*
X3404006Y7639151D03*
G01*
X3150006Y7639151D03*
G01*
X2896006Y7639151D03*
G01*
X2642006Y7639151D03*
G01*
X2388006Y7639151D03*
G01*
X2134006Y7639151D03*
G01*
X1880006Y7639151D03*
G01*
X1626006Y7639151D03*
G01*
X1372006Y7639151D03*
D19*
G01*
X1118006Y7639151D03*
D20*
G01*
X567994Y7639151D03*
G01*
X567994Y4539132D03*
G01*
X8068005Y7639151D03*
G01*
X8068005Y4539132D03*
D21*
G01*
X4246879Y1996186D03*
G01*
X4246879Y1546097D03*
G01*
X4897120Y1996186D03*
G01*
X4897120Y1546097D03*
G01*
X2976879Y1996186D03*
G01*
X2976879Y1546097D03*
G01*
X3627120Y1996186D03*
G01*
X3627120Y1546097D03*
G01*
X1706879Y1996186D03*
G01*
X1706879Y1546097D03*
G01*
X2357120Y1996186D03*
G01*
X2357120Y1546097D03*
G01*
X436879Y1996186D03*
G01*
X436879Y1546097D03*
G01*
X1087120Y1996186D03*
G01*
X1087120Y1546097D03*
D22*
G01*
X9173387Y780542D03*
D23*
G01*
X9423400Y780542D03*
D22*
G01*
X6887387Y780542D03*
D23*
G01*
X7137400Y780542D03*
D22*
G01*
X8157387Y780542D03*
D23*
G01*
X8407400Y780542D03*
D22*
G01*
X5871387Y780542D03*
D23*
G01*
X6121400Y780542D03*
D24*
G01*
X4819116Y3397300D03*
G01*
X4653076Y6684010D03*
G01*
X4803851Y3970172D03*
G01*
X7580731Y4296130D03*
G01*
X8763000Y2571242D03*
G01*
X5194300Y2724251D03*
G01*
X2593086Y2924657D03*
G01*
X2159000Y2229256D03*
G01*
X4856099Y2229256D03*
M02*
